<?xml version="1.0" encoding="utf-8"?>
<!-- Generator: Adobe Illustrator 25.0.0, SVG Export Plug-In . SVG Version: 6.00 Build 0)  -->
<svg version="1.1" id="Layer_1" xmlns="http://www.w3.org/2000/svg" xmlns:xlink="http://www.w3.org/1999/xlink" x="0px" y="0px"
	 viewBox="0 0 342.8 191" style="enable-background:new 0 0 342.8 191;" xml:space="preserve">
<style type="text/css">
	.st0{fill:#FFFFFF;}
</style>
<path class="st0" d="M65,178.1c-0.1-0.1-0.3-0.2-0.4-0.2l0,0c-0.2,0-0.3,0.1-0.4,0.2c-0.1,0.1-0.2,0.3-0.2,0.4l0.1,4.2
	c0,0.2-0.1,0.5-0.2,0.7c-0.2,0.2-0.4,0.2-0.7,0.2l-34.1,0.7l35.7-27.5l0,0v-1.7l-40,0.8l0,0c-0.2,0-0.5-0.1-0.6-0.2
	c-0.2-0.2-0.2-0.4-0.2-0.7l-0.2-3.1c0-0.2-0.1-0.3-0.2-0.4c-0.1-0.1-0.3-0.2-0.4-0.2l0,0c-0.2,0-0.3,0.1-0.4,0.2
	c-0.1,0.1-0.2,0.3-0.2,0.4l0.2,10.9c0,0.2,0.1,0.3,0.2,0.4c0.1,0.1,0.3,0.2,0.4,0.2l0,0c0.3,0,0.6-0.2,0.6-0.5c0-0.1,0-0.1,0-0.2
	l-0.1-4.2c-0.1-0.4,0.2-0.8,0.6-0.9c0.1,0,0.2,0,0.2,0l32.4-0.7l-34,25.5l0,0l0.2,7.7c0,0.2,0.1,0.3,0.2,0.4
	c0.1,0.1,0.3,0.2,0.4,0.2l0,0c0.2,0,0.3,0,0.5-0.2c0.1-0.1,0.2-0.3,0.1-0.5l-0.1-3.1c-0.1-0.4,0.2-0.8,0.6-0.9c0.1,0,0.2,0,0.2,0
	l37.9-0.8l0,0c0.4-0.1,0.8,0.2,0.9,0.7c0,0.1,0,0.1,0,0.2l0.1,3.1c0,0.3,0.2,0.6,0.5,0.6c0,0,0.1,0,0.1,0l0,0c0.2,0,0.3-0.1,0.4-0.2
	c0.1-0.1,0.2-0.3,0.2-0.4l-0.2-10.9C65.2,178.4,65.1,178.2,65,178.1z"/>
<path class="st0" d="M69.7,109.8c-2.7-2.8-6-5-9.7-6.4c-3.6-1.5-7.5-2.2-11.4-2c-3.5,0.2-6.8,1.3-9.7,3.2c-5.7,4-8.4,11-7.1,17.8
	c0.7,3.4,2.4,6.5,4.8,9c2.7,2.8,6,5,9.6,6.4c3.2,1.3,6.6,2,10,2.1c0.5,0,0.9,0,1.4,0c3.5-0.2,6.8-1.3,9.7-3.2c5.7-4,8.4-11,7.1-17.8
	C73.7,115.5,72.1,112.3,69.7,109.8z M72.4,128.3c-1,2.4-2.8,4.4-5.1,5.6c-2.7,1.3-5.7,1.8-8.6,1.7c-3.6-0.2-7.2-1-10.5-2.4
	c-3.4-1.3-6.5-3.2-9.3-5.6c-2.3-1.9-4-4.4-5.1-7.2c-1.8-5.1,0.5-10.7,5.3-13.2c2.4-1.2,5-1.7,7.7-1.7h1c3.6,0.2,7.2,1,10.5,2.4
	c3.4,1.3,6.5,3.2,9.3,5.5c2.3,1.9,4,4.4,5.1,7.2C73.4,123.2,73.3,125.9,72.4,128.3z"/>
<path class="st0" d="M78.5,52.6l2.2-2.2c0.1-0.1,0.2-0.3,0.2-0.4c0-0.3-0.3-0.6-0.6-0.6c-0.1,0-0.3,0.1-0.4,0.1l-7.7,7.7
	C72,57.4,72,57.5,72,57.7c0,0.2,0.1,0.3,0.2,0.4c0.2,0.2,0.5,0.3,0.8,0.1c0,0,0.1-0.1,0.1-0.1l3-3c0.3-0.4,0.8-0.4,1.1-0.2
	c0.1,0,0.1,0.1,0.2,0.2L100.2,78l-42-6.8l0,0l-5.4,5.4c-0.1,0.1-0.2,0.3-0.2,0.4c0,0.2,0.1,0.3,0.2,0.4c0.2,0.2,0.5,0.3,0.8,0.1
	c0,0,0.1-0.1,0.1-0.1l2.2-2.2c0.3-0.4,0.8-0.4,1.1-0.2c0.1,0,0.1,0.1,0.2,0.2l26.9,26.8c0.4,0.3,0.4,0.8,0.2,1.1
	c0,0.1-0.1,0.1-0.2,0.2l0,0l-2.2,2.2c-0.1,0.1-0.2,0.3-0.2,0.4c0,0.2,0.1,0.3,0.2,0.4c0.1,0.1,0.3,0.2,0.4,0.2
	c0.2,0,0.3-0.1,0.4-0.2l7.7-7.7c0.2-0.2,0.2-0.6,0-0.8c0,0,0,0,0,0c-0.1-0.1-0.3-0.2-0.4-0.2c-0.2,0-0.3,0.1-0.4,0.2l-3,3
	c-0.3,0.4-0.8,0.4-1.1,0.2c-0.1,0-0.1-0.1-0.2-0.2L61,76.8l44.6,6.6l0,0l1.2-1.2l0,0L78.5,53.9c-0.4-0.3-0.4-0.8-0.2-1.1
	C78.4,52.7,78.4,52.7,78.5,52.6z"/>
<path class="st0" d="M135.5,31.7l-4.6-7.5v0l-28.2,11.5c-0.1,0.1-0.3,0.2-0.3,0.3c-0.1,0.1-0.1,0.3,0,0.5c0,0.2,0.2,0.3,0.3,0.4
	c0.2,0.1,0.3,0.1,0.5,0l2.9-1.2c0.4-0.2,0.9-0.1,1.1,0.3c0,0.1,0.1,0.1,0.1,0.2l14.3,35.1c0.2,0.4,0.1,0.9-0.3,1.1
	c-0.1,0-0.1,0.1-0.2,0.1l-2.9,1.2c-0.2,0.1-0.3,0.2-0.4,0.3c-0.1,0.2-0.1,0.3,0,0.5c0.1,0.1,0.2,0.3,0.3,0.3c0.1,0,0.2,0,0.2,0
	c0.1,0,0.1,0,0.2,0l13.1-5.3c0.1-0.1,0.3-0.2,0.3-0.3c0.1-0.1,0.1-0.3,0-0.5c-0.1-0.2-0.2-0.3-0.3-0.3c-0.1-0.1-0.3-0.1-0.5,0
	l-4.4,1.8c-0.2,0.1-0.5,0.1-0.7,0c-0.2-0.1-0.4-0.3-0.5-0.5l-8-19.8l7.6-3.1c1-0.4,2-0.6,3.1-0.6c1,0.1,1.9,0.6,2.5,1.3
	c1,1.2,1.9,2.5,2.5,3.9c0.1,0.1,0.2,0.2,0.3,0.3c0.1,0.1,0.3,0.1,0.4,0c0.1-0.1,0.2-0.2,0.2-0.3c0.1-0.1,0.1-0.3,0-0.4l-5.7-14
	c-0.1-0.1-0.2-0.3-0.3-0.3c-0.1-0.1-0.3-0.1-0.4,0c-0.1,0.1-0.2,0.2-0.3,0.3c0,0.1,0,0.3,0,0.5c0.4,1.4,0.7,2.8,0.7,4.3
	c0,0.9-0.3,1.8-0.9,2.5c-0.7,0.7-1.6,1.3-2.6,1.6l-7.6,3.1l-6.1-15l11.6-4.7c1.3-0.6,2.7-0.9,4.2-1h0.1c1.3,0,2.6,0.4,3.7,1.1
	c1.5,1,2.9,2.2,4.1,3.5c0.2,0.2,0.5,0.3,0.8,0.2c0.2-0.1,0.3-0.2,0.3-0.3c0-0.2,0-0.4-0.1-0.5L135.5,31.7z"/>
<path class="st0" d="M166.6,60.4l-3.1,0.3c-0.2,0-0.5,0-0.7-0.2c-0.2-0.2-0.3-0.4-0.3-0.7l-3.9-37.8c-0.1-0.4,0.1-0.9,0.6-1
	c0.1,0,0.2,0,0.2,0l3.1-0.3c0.2,0,0.3-0.1,0.4-0.2c0.1-0.1,0.1-0.3,0.1-0.4c0-0.2-0.1-0.3-0.2-0.4c-0.1-0.1-0.3-0.2-0.4-0.1
	l-12.4,1.3c-0.2,0-0.3,0.1-0.4,0.2c-0.1,0.1-0.2,0.3-0.1,0.4c0,0.2,0.1,0.3,0.2,0.4c0.1,0.1,0.3,0.1,0.5,0.1l3.1-0.3
	c0.2-0.1,0.5,0,0.7,0.1c0.2,0.2,0.3,0.4,0.3,0.6l3.8,37.8c0,0.2,0,0.5-0.1,0.7c-0.2,0.2-0.4,0.3-0.6,0.3l-3.1,0.3
	c-0.3,0-0.5,0.2-0.6,0.5c0,0.1,0,0.1,0,0.2c0,0.2,0.1,0.3,0.2,0.4c0.1,0.1,0.2,0.1,0.4,0.1h0.1l12.4-1.3c0.2,0,0.3-0.1,0.4-0.2
	c0.1-0.1,0.2-0.3,0.1-0.4c0-0.2-0.1-0.3-0.2-0.4C166.9,60.5,166.7,60.4,166.6,60.4z"/>
<path class="st0" d="M215.7,25.3c-0.2,0-0.4,0.1-0.4,0.2l-1.4,2.8c-1.4-1.6-3.1-3-5-4.2c-2-1.2-4.3-2-6.6-2.4
	c-3.2-0.7-6.6-0.3-9.6,1c-3.1,1.4-5.8,3.6-7.8,6.4c-2.3,3.2-3.8,6.9-4.5,10.7c-0.8,3.8-0.8,7.8,0.2,11.6c0.8,3.4,2.5,6.4,5,8.9
	c2.4,2.4,5.5,3.9,8.9,4.5c1.2,0.2,2.4,0.4,3.6,0.4c1.7,0,3.3-0.2,4.9-0.7c2.8-0.9,5.2-2.5,7.1-4.7c0.2-0.3,0.2-0.6,0-0.9
	c-0.1-0.1-0.3-0.2-0.5-0.2c-0.2,0-0.4,0.1-0.6,0.3c-1.8,2-4,3.5-6.6,4.4c-2.3,0.8-4.8,0.9-7.2,0.5c-2.6-0.5-5-1.9-6.6-4
	c-1.8-2.4-3-5.2-3.5-8.2c-0.6-3.6-0.5-7.2,0.3-10.8c0.6-3.6,1.9-7,3.7-10.1c1.5-2.6,3.6-4.8,6.2-6.4c2.2-1.3,4.8-1.8,7.3-1.3
	c3.2,0.5,6,2.3,7.8,5c1.6,2.6,2.5,6.2,2.6,10.8c0,0.2,0.1,0.4,0.2,0.5c0.1,0.1,0.2,0.3,0.4,0.3c0.2,0,0.3,0,0.4-0.1
	c0.1-0.1,0.2-0.3,0.2-0.5l1.8-13.1c0-0.1,0-0.2-0.1-0.3C215.9,25.4,215.8,25.4,215.7,25.3z"/>
<path class="st0" d="M235,81l-3.1-2c-0.4-0.2-0.6-0.7-0.4-1.1c0-0.1,0.1-0.1,0.1-0.2L252.5,45l6,3.8c1.1,0.6,2.1,1.5,2.8,2.6
	c0.5,0.8,0.7,1.8,0.6,2.7c-0.2,1.7-0.5,3.3-1,4.9c-0.1,0.4,0.1,0.7,0.4,0.9c0.1,0.1,0.2,0.1,0.3,0.1c0.2-0.1,0.3-0.2,0.4-0.4
	c0.1-0.1,0.2-0.3,0.2-0.5l3-7.4l0,0l-28-18l-5.4,5.9c-0.1,0.1-0.2,0.3-0.3,0.4c-0.1,0.2-0.2,0.4-0.2,0.5c0,0.1,0.1,0.2,0.2,0.2
	c0.3,0.2,0.7,0.2,1,0c1.3-1.1,2.6-2.1,4-3c0.8-0.5,1.8-0.7,2.7-0.6c1.3,0.2,2.5,0.7,3.5,1.5l6,3.8l-20.9,32.7
	c-0.2,0.4-0.6,0.6-1,0.4c-0.1,0-0.1-0.1-0.2-0.1l-3.1-2c-0.1-0.1-0.3-0.1-0.5-0.1c-0.2,0-0.3,0.1-0.4,0.3c-0.1,0.1-0.1,0.3-0.1,0.5
	c0,0.2,0.1,0.3,0.3,0.4l11.5,7.3c0.1,0.1,0.2,0.1,0.3,0.1h0.1c0.2,0,0.3-0.1,0.4-0.3c0.1-0.1,0.1-0.3,0.1-0.5
	C235.2,81.2,235.1,81.1,235,81z"/>
<path class="st0" d="M254.5,99.6c-0.2-0.2-0.3-0.4-0.3-0.7c0-0.2,0.2-0.5,0.4-0.6l28.5-25c0.3-0.3,0.8-0.4,1.1-0.1
	c0.1,0.1,0.1,0.1,0.2,0.2l2.1,2.4c0.1,0.1,0.3,0.2,0.4,0.2c0.2,0,0.3,0,0.4-0.1c0.1-0.1,0.2-0.3,0.2-0.4c0-0.2,0-0.3-0.1-0.4
	l-8.2-9.4c-0.1-0.1-0.3-0.2-0.4-0.2c-0.3,0-0.6,0.2-0.7,0.5c0,0.2,0,0.4,0.2,0.5l2.1,2.3c0.2,0.2,0.3,0.4,0.3,0.7
	c0,0.2-0.2,0.5-0.4,0.6l-28.6,25c-0.3,0.3-0.8,0.4-1.1,0.1c-0.1-0.1-0.1-0.1-0.2-0.2l-2.1-2.3c-0.1-0.1-0.2-0.2-0.4-0.2l0,0
	c-0.3,0-0.6,0.3-0.6,0.6c0,0.2,0,0.3,0.1,0.4l8.2,9.4c0.1,0.1,0.3,0.2,0.4,0.2h0c0.1,0,0.3-0.1,0.4-0.2c0.1-0.1,0.2-0.3,0.2-0.4
	c0-0.2,0-0.3-0.1-0.4L254.5,99.6z"/>
<path class="st0" d="M285.6,137.8c3.6-0.1,7.1-0.8,10.4-2.3c3.6-1.5,6.9-3.7,9.5-6.6c2.3-2.6,3.9-5.7,4.6-9.1
	c1.2-6.8-1.7-13.7-7.5-17.6c-2.9-1.9-6.3-2.9-9.8-3c-7.9-0.1-15.5,3.1-20.9,8.8c-2.3,2.6-3.9,5.7-4.6,9.1
	c-1.2,6.8,1.8,13.8,7.5,17.7c2.9,1.9,6.3,2.9,9.7,3L285.6,137.8z M275,132.1c-4.9-2.4-7.2-8-5.5-13.1c1-2.8,2.7-5.3,5-7.2
	c5.5-4.8,12.4-7.7,19.7-8.3h1.3c2.5-0.1,5.1,0.5,7.4,1.5c4.9,2.4,7.2,8,5.5,13.1c-1,2.8-2.7,5.3-5,7.2c-5.5,4.7-12.4,7.7-19.7,8.3
	C280.7,133.9,277.7,133.3,275,132.1z"/>
<path class="st0" d="M320.2,151.7c-0.1-0.1-0.3-0.2-0.4-0.2l0,0c-0.3,0-0.6,0.2-0.6,0.5c0,0,0,0.1,0,0.1l-0.1,3.1
	c0,0.2-0.1,0.5-0.2,0.7c-0.2,0.2-0.4,0.2-0.6,0.2l0,0l-37.9-0.8c-0.2,0-0.5-0.1-0.7-0.2c-0.2-0.2-0.2-0.4-0.2-0.7l0.1-3.1
	c0-0.3-0.2-0.6-0.5-0.6c0,0-0.1,0-0.1,0l0,0c-0.2,0-0.3,0.1-0.4,0.2c-0.1,0.1-0.2,0.3-0.2,0.4l-0.2,10.9c0,0.2,0.1,0.3,0.2,0.4
	c0.1,0.1,0.3,0.2,0.4,0.2l0,0c0.2,0,0.3-0.1,0.4-0.2c0.1-0.1,0.2-0.3,0.2-0.4l0.1-4.2c-0.1-0.4,0.3-0.8,0.7-0.9c0.1,0,0.2,0,0.2,0
	l34.1,0.7l-36.8,26l0,0v1.6v0.1l40,0.8c0.4,0,0.8,0.3,0.9,0.7c0,0.1,0,0.1,0,0.2l-0.1,3.1c0,0.2,0.1,0.3,0.2,0.4
	c0.1,0.1,0.3,0.2,0.4,0.2l0,0c0.2,0,0.3-0.1,0.4-0.2c0.1-0.1,0.2-0.3,0.2-0.4l0.2-10.9c0-0.2-0.1-0.3-0.2-0.4
	c-0.1-0.1-0.3-0.2-0.4-0.2l0,0c-0.2,0-0.3,0-0.4,0.1c-0.1,0.1-0.2,0.3-0.2,0.4l-0.1,4.2c0,0.2-0.1,0.5-0.2,0.7
	c-0.2,0.2-0.4,0.2-0.7,0.2l-32.4-0.7l35-24.1l0,0l0.2-7.7C320.4,151.9,320.3,151.8,320.2,151.7z"/>
<path class="st0" d="M2.6,190.7c-0.7-6.4-1.1-12.8-1.1-19.3C1.5,77.7,77.7,1.5,171.4,1.5s170,76.2,170,170c0,6.4-0.4,12.9-1.1,19.3
	h1.5c0.7-6.4,1.1-12.8,1.1-19.3C342.8,76.9,265.9,0,171.4,0S0,76.9,0,171.4c0,6.4,0.4,12.9,1.1,19.3H2.6z"/>
</svg>
