<?xml version="1.0" encoding="utf-8"?>
<!-- Generator: Adobe Illustrator 25.0.0, SVG Export Plug-In . SVG Version: 6.00 Build 0)  -->
<svg version="1.1" id="Layer_2_1_" xmlns="http://www.w3.org/2000/svg" xmlns:xlink="http://www.w3.org/1999/xlink" x="0px" y="0px"
	 viewBox="0 0 46 40.8" style="enable-background:new 0 0 46 40.8;" xml:space="preserve">
<style type="text/css">
	.st0{fill:none;stroke:#333333;stroke-miterlimit:10;}
	.st1{fill:none;stroke:#333333;stroke-linecap:round;stroke-linejoin:round;stroke-miterlimit:10;}
	.st2{fill:none;stroke:#333333;stroke-linecap:round;stroke-miterlimit:10;}
	.st3{fill:#FFFFFF;}
</style>
<path class="st0" d="M200.7,253c0-3.8,0-7.7,0-9.9c0-4,2.9-9.4-3.4-9.4c-6.3,0-45.9,0-49.9,0s-8.2,0.2-6.5,7.7
	c0.6,2.9,0.8,12.8,0.7,16s-0.7,9.1,0.7,10.6c1.4,1.4,3,1,12.1,1c6.5,0,23.3,0,33.6,0"/>
<path class="st0" d="M200.6,262.9c0-0.6,0-0.8,0-1.5c0-1.8,0-3.9,0-6.2"/>
<path class="st0" d="M144.1,269c0,0-0.5,9.1-1.4,11.9c-1,2.9-1.7,6.5,5.1,6.5c5.9,0,29.1,0,40.1,0"/>
<line class="st0" x1="167.9" y1="233.7" x2="167.9" y2="252.7"/>
<line class="st0" x1="173.6" y1="233.7" x2="173.6" y2="254.7"/>
<line class="st0" x1="167.9" y1="277.3" x2="167.9" y2="287.5"/>
<line class="st0" x1="173.6" y1="277.3" x2="173.6" y2="287.5"/>
<path class="st0" d="M171.7,269H170c-1,0-1.9-0.9-1.9-1.9v-1.7c0-1,0.9-1.9,1.9-1.9h1.7c1,0,1.9,0.9,1.9,1.9v1.7
	C173.6,268.1,172.7,269,171.7,269z"/>
<path class="st0" d="M168.5,264.1l-0.9-8.2c-0.1-0.6,0.4-1.2,1-1.2h4.3c0.6,0,1.1,0.5,1,1.1l-0.7,8.2"/>
<path class="st0" d="M168.5,268.2l-0.9,8.2c-0.1,0.6,0.4,1.2,1,1.2h4.3c0.6,0,1.1-0.5,1-1.1l-0.7-8.2"/>
<polyline class="st0" points="169,254.7 166.7,251 161.8,254.5 168.4,263.7 "/>
<polyline class="st0" points="167.5,277.3 166.1,278.7 161.8,273.7 168.3,267.9 "/>
<circle class="st0" cx="146" cy="261.8" r="2.7"/>
<polyline class="st0" points="176.4,269 176.4,259.9 184.3,259.9 184.3,269 "/>
<line class="st0" x1="150.6" y1="264.1" x2="168.5" y2="264.1"/>
<line class="st0" x1="173.6" y1="264.1" x2="176.4" y2="264.1"/>
<path class="st0" d="M142.8,149.3c0.6,2.9,0.8,12.8,0.7,16s-0.7,9.1,0.7,10.6c1.4,1.4,3,1,12.1,1s37.3,0,41.6,0
	c4.3,0,4.8-2.4,4.8-7.6s0-14.3,0-18.3s2.9-9.4-3.4-9.4c-6.3,0-45.9,0-49.9,0C145.3,141.6,141.1,141.8,142.8,149.3z"/>
<path class="st0" d="M146.1,176.9c0,0-0.5,9.1-1.4,11.9c-1,2.9-1.7,6.5,5.1,6.5c7,0,38.3,0,44.6,0s9.6-0.7,7.8-5.8
	c-1.7-5.1-2-13.1-2-13.1"/>
<line class="st0" x1="169.9" y1="141.6" x2="169.9" y2="160.6"/>
<line class="st0" x1="175.6" y1="141.6" x2="175.6" y2="162.6"/>
<line class="st0" x1="169.9" y1="185.2" x2="169.9" y2="195.4"/>
<line class="st0" x1="175.6" y1="185.2" x2="175.6" y2="195.4"/>
<path class="st0" d="M173.7,176.9H172c-1,0-1.9-0.9-1.9-1.9v-1.7c0-1,0.9-1.9,1.9-1.9h1.7c1,0,1.9,0.9,1.9,1.9v1.7
	C175.6,176,174.7,176.9,173.7,176.9z"/>
<path class="st0" d="M170.5,172l-0.9-8.2c-0.1-0.6,0.4-1.2,1-1.2h4.3c0.6,0,1.1,0.5,1,1.1l-0.7,8.2"/>
<path class="st0" d="M170.5,176.1l-0.9,8.2c-0.1,0.6,0.4,1.2,1,1.2h4.3c0.6,0,1.1-0.5,1-1.1l-0.7-8.2"/>
<polyline class="st0" points="171,162.6 168.7,158.9 163.8,162.4 170.4,171.6 "/>
<polyline class="st0" points="169.5,185.2 168.1,186.6 163.8,181.6 170.3,175.8 "/>
<circle class="st0" cx="148" cy="169.7" r="2.7"/>
<polyline class="st0" points="178.4,176.9 178.4,167.8 186.3,167.8 186.3,176.9 "/>
<line class="st0" x1="152.6" y1="172" x2="170.5" y2="172"/>
<line class="st0" x1="175.6" y1="172" x2="178.4" y2="172"/>
<path class="st0" d="M259.3,132c3,0,14.7,0,16.9,0s2.4-1.9,1.9-3.1c-0.3-0.9-1.1-1.2-2.5-1.2s-13.2,1.2-15.1,1.4
	C258.2,129.4,257.9,132,259.3,132z"/>
<polyline class="st0" points="268.7,132 268.7,138.5 274.4,138.5 274.4,132 "/>
<path class="st0" d="M265.6,145.5v-5.4c0-0.9,0.7-1.6,1.6-1.6h8.8c0.9,0,1.6,0.7,1.6,1.6v5.4H265.6z"/>
<path class="st0" d="M265.6,145.5l-10.1,2.3c-0.2,0.1-0.2,0.4,0,0.4h32.2c0.2,0,0.2-0.3,0-0.3l-10.1-2.4"/>
<path class="st0" d="M282.5,197.5h-21.8c-3,0-5.4-2.4-5.4-5.4v-44h32.5v44C287.9,195.1,285.5,197.5,282.5,197.5z"/>
<path class="st0" d="M367.8,142.9v-8.4c0-0.7,0.6-1.3,1.2-1.3h8.1c0.7,0,1.2,0.6,1.2,1.3v8.4H367.8z"/>
<path class="st0" d="M367.8,142.9l-8.9,3.7c-0.2,0.1-0.2,0.4,0,0.4h28.3c0.2,0,0.2-0.3,0-0.3l-8.9-3.8"/>
<path class="st0" d="M382.6,193.2h-19c-2.7,0-4.8-2.2-4.8-4.8V147h28.6v41.4C387.4,191,385.3,193.2,382.6,193.2z"/>
<path class="st1" d="M281.9,156.9h-20.8V174h7.1c-4.1,1.4-7.1,5.3-7.1,9.9v3.2h20.8v-3.2c0-4.6-3-8.5-7.1-9.9h7.1V156.9z"/>
<line class="st1" x1="267.1" y1="163.2" x2="276" y2="163.2"/>
<line class="st1" x1="265.3" y1="165.8" x2="277.9" y2="165.8"/>
<line class="st1" x1="266.1" y1="168.4" x2="276.9" y2="168.4"/>
<path class="st2" d="M279.1,184.5c0-4.6-3.4-8.3-7.5-8.3s-7.5,3.7-7.5,8.3"/>
<path class="st0" d="M299.5,132c3,0,14.7,0,16.9,0s2.4-1.9,1.9-3.1c-0.3-0.9-1.1-1.2-2.5-1.2s-13.2,1.2-15.1,1.4
	C298.4,129.4,298,132,299.5,132z"/>
<polyline class="st0" points="308.9,132 308.9,138.5 314.6,138.5 314.6,132 "/>
<path class="st0" d="M305.7,145.5l-10.1,2.3c-0.2,0.1-0.2,0.4,0,0.4h32.2c0.2,0,0.2-0.3,0-0.3l-10.1-2.4"/>
<path class="st1" d="M301.3,187h20.8v-17.2H315c4.1-1.4,7.1-5.3,7.1-9.9v-3.2h-20.8v3.2c0,4.6,3,8.5,7.1,9.9h-7.1L301.3,187
	L301.3,187z"/>
<path class="st2" d="M304.1,159.4c0,4.6,3.4,8.3,7.5,8.3s7.5-3.7,7.5-8.3"/>
<g>
	<path class="st0" d="M190.2,255.1c1.7,0,8.4,0,9.6,0s1.3-1.1,1.1-1.8c-0.2-0.5-0.6-0.7-1.4-0.7c-0.8,0-7.6,0.7-8.6,0.8
		C189.6,253.6,189.4,255.1,190.2,255.1z"/>
	<polyline class="st0" points="195.6,255.1 195.6,258.9 198.8,258.9 198.8,255.1 	"/>
	<rect x="193.8" y="258.9" class="st0" width="6.9" height="4"/>
	<path class="st0" d="M193.8,262.9l-5.8,1.3c-0.1,0-0.1,0.2,0,0.2h18.4c0.1,0,0.1-0.1,0-0.2l-5.8-1.4"/>
	<path class="st0" d="M203.3,292.6h-12.1c-1.8,0-3.2-1.4-3.2-3.2v-25h18.6v25C206.5,291.2,205.1,292.6,203.3,292.6z"/>
	<path class="st1" d="M191.2,286.6h11.9v-9.8H199c2.4-0.8,4.1-3,4.1-5.6v-1.8h-11.9v1.8c0,2.6,1.7,4.8,4.1,5.6h-4.1V286.6z"/>
	<line class="st1" x1="199.7" y1="283.1" x2="194.6" y2="283.1"/>
	<line class="st1" x1="200.8" y1="281.5" x2="193.5" y2="281.5"/>
	<line class="st1" x1="200.3" y1="280" x2="194.1" y2="280"/>
	<path class="st2" d="M192.9,270.8c0,2.6,1.9,4.7,4.3,4.7c2.4,0,4.3-2.1,4.3-4.7"/>
</g>
<path class="st0" d="M283.8,237.4h-9.4l0.9-9.5c0-0.4,0.3-0.6,0.7-0.6h6.1c0.4,0,0.7,0.3,0.7,0.6L283.8,237.4z"/>
<path class="st2" d="M290.2,242.5L290.2,242.5c-0.5,0.2-5,1.1-11.1,1.1c-6.8,0-10.6-1-11.1-1.1l0,0l6.4-5.1l0,0h9.4l0,0L290.2,242.5
	z"/>
<path class="st2" d="M290.2,242.5l4.9,52.1c0.1,0.5-0.4,1-0.9,1h-30.3c-0.5,0-1-0.5-0.9-1l4.9-52.1"/>
<path class="st0" d="M305.7,145.5v-5.4c0-0.9,0.7-1.6,1.6-1.6h8.8c0.9,0,1.6,0.7,1.6,1.6v5.4H305.7z"/>
<path class="st1" d="M279.1,249.5c-4.7,0-8.5,3.8-8.5,8.5v17h17v-17C287.6,253.3,283.8,249.5,279.1,249.5z"/>
<line class="st2" x1="265.8" y1="291.9" x2="292.6" y2="291.9"/>
<path class="st2" d="M273.4,259.6v-1.2c0-3.4,2.5-6.1,5.7-6.1c3.1,0,5.7,2.7,5.7,6.1v1.2"/>
<path class="st1" d="M275.3,271.2"/>
<path class="st1" d="M282.9,271.2"/>
<path class="st1" d="M273.7,268.4"/>
<path class="st1" d="M284.5,268.4"/>
<path class="st1" d="M274.5,265.7"/>
<path class="st1" d="M283.8,265.7"/>
<g>
	<path class="st0" d="M214.2,287.7h4.6l-0.5,4.6c0,0.2-0.2,0.3-0.3,0.3h-3c-0.2,0-0.3-0.1-0.3-0.3L214.2,287.7z"/>
	<path class="st2" d="M211.1,285.1C211,285.1,211,285.1,211.1,285.1c0.3-0.1,2.4-0.6,5.4-0.6c3.3,0,5.2,0.5,5.4,0.5l0,0l-3.1,2.5
		l0,0h-4.6l0,0L211.1,285.1z"/>
	<path class="st2" d="M211,285.1l-2.4-25.5c0-0.3,0.2-0.5,0.4-0.5h14.8c0.3,0,0.5,0.2,0.4,0.5l-2.4,25.5"/>
	<path class="st1" d="M216.5,281.7c2.3,0,4.2-1.9,4.2-4.2v-8.3h-8.3v8.3C212.3,279.9,214.2,281.7,216.5,281.7z"/>
	<line class="st2" x1="223" y1="261" x2="209.9" y2="261"/>
	<path class="st2" d="M219.2,276.8v0.6c0,1.7-1.2,3-2.8,3c-1.5,0-2.8-1.3-2.8-3v-0.6"/>
	<line class="st1" x1="214.6" y1="271.1" x2="218.3" y2="271.1"/>
	<line class="st1" x1="213.8" y1="272.5" x2="219.1" y2="272.5"/>
	<line class="st1" x1="214.2" y1="273.8" x2="218.7" y2="273.8"/>
</g>
<path class="st1" d="M373.1,156.5c-5,0-9.1,4.1-9.1,9.1v15.8h18.2v-15.8C382.2,160.6,378.1,156.5,373.1,156.5z"/>
<path class="st1" d="M367.1,167.3v-1.2c0-3.6,2.7-6.5,6-6.5s6,2.9,6,6.5v1.2"/>
<line class="st1" x1="377.2" y1="177.7" x2="369.1" y2="177.7"/>
<line class="st1" x1="378.8" y1="175" x2="367.3" y2="175"/>
<line class="st1" x1="378.1" y1="172.2" x2="368.2" y2="172.2"/>
<path class="st0" d="M404.3,142.9v-8.4c0-0.7,0.6-1.3,1.2-1.3h8.1c0.7,0,1.2,0.6,1.2,1.3v8.4H404.3z"/>
<path class="st0" d="M404.3,142.9l-8.9,3.7c-0.2,0.1-0.2,0.4,0,0.4h28.3c0.2,0,0.2-0.3,0-0.3l-8.9-3.8"/>
<path class="st0" d="M419.1,193.2h-19c-2.7,0-4.8-2.2-4.8-4.8V147h28.6v41.4C423.9,191,421.8,193.2,419.1,193.2z"/>
<path class="st1" d="M409.6,181.4c5,0,9.1-4.1,9.1-9.1v-15.8h-18.2v15.8C400.5,177.4,404.6,181.4,409.6,181.4z"/>
<path class="st1" d="M415.7,170.6v1.2c0,3.6-2.7,6.5-6,6.5s-6-2.9-6-6.5v-1.2"/>
<line class="st1" x1="405.5" y1="160.3" x2="413.6" y2="160.3"/>
<line class="st1" x1="403.9" y1="163" x2="415.4" y2="163"/>
<line class="st1" x1="404.6" y1="165.8" x2="414.5" y2="165.8"/>
<line class="st1" x1="282.7" y1="270.9" x2="275.1" y2="270.9"/>
<line class="st1" x1="284.3" y1="268.4" x2="273.5" y2="268.4"/>
<line class="st1" x1="283.5" y1="265.8" x2="274.3" y2="265.8"/>
<line class="st1" x1="307.1" y1="175.5" x2="316" y2="175.5"/>
<line class="st1" x1="305.3" y1="178.1" x2="317.9" y2="178.1"/>
<line class="st1" x1="306.1" y1="180.7" x2="317" y2="180.7"/>
<path class="st0" d="M322.7,197.5h-21.8c-3,0-5.4-2.4-5.4-5.4v-44H328v44C328,195.1,325.6,197.5,322.7,197.5z"/>
<path class="st0" d="M344.2,245.4l-10.2,2.9c-0.3,0-0.2,0.4,0.1,0.4h38.3c0.2,0,0.3-0.2,0-0.3l-10.2-3"/>
<path class="st1" d="M341.8,282.7h22.7v-16h-7.7c4.5-1.5,7.7-5.7,7.7-10.8v-3.5h-22.7v3.5c0,5,3.2,9.2,7.7,10.8h-7.7V282.7z"/>
<path class="st2" d="M344.9,255.2c0,5,3.7,9.1,8.2,9.1s8.2-4.1,8.2-9.1"/>
<path class="st0" d="M344.2,245.4v-15.5c0-1.2,1-2.2,2.2-2.2h13.7c1.2,0,2.2,1,2.2,2.2v15.5H344.2z"/>
<line class="st1" x1="348.1" y1="271.4" x2="357.9" y2="271.4"/>
<line class="st1" x1="346.2" y1="274.3" x2="360" y2="274.3"/>
<line class="st1" x1="347.1" y1="277.1" x2="358.9" y2="277.1"/>
<path class="st0" d="M358.5,294.2H348c-7.8,0-14.1-6.3-14.1-14.1v-31.5h38.7v31.5C372.6,287.9,366.3,294.2,358.5,294.2z"/>
<rect x="411.3" y="234.4" class="st1" width="18" height="45.1"/>
<rect x="437.5" y="261.5" class="st1" width="18" height="18"/>
<rect x="440.4" y="244.8" class="st1" width="12.3" height="16.8"/>
<path class="st1" d="M451.2,244.8h-9.4v-5.7c0-1.2,1-2.1,2.1-2.1h5.2c1.2,0,2.1,1,2.1,2.1L451.2,244.8L451.2,244.8z"/>
<line class="st1" x1="416.7" y1="241.8" x2="423.8" y2="241.8"/>
<line class="st1" x1="415.2" y1="244.8" x2="425.4" y2="244.8"/>
<line class="st1" x1="415.9" y1="247.8" x2="424.6" y2="247.8"/>
<line class="st1" x1="415.2" y1="255.5" x2="425.4" y2="255.5"/>
<line class="st1" x1="415.9" y1="258.5" x2="424.6" y2="258.5"/>
<circle class="st1" cx="420.3" cy="269.5" r="5.1"/>
<polyline class="st1" points="157.4,379.5 137.8,379.5 137.8,349.5 166.3,349.5 166.3,360.9 "/>
<line class="st1" x1="159.3" y1="349.5" x2="159.3" y2="360.9"/>
<line class="st1" x1="162.7" y1="349.5" x2="162.7" y2="360.9"/>
<path class="st1" d="M155.8,349.5V346c0-3.3-2.7-6-6-6l0,0c-3.3,0-6,2.7-6,6v3.5v8.9"/>
<path class="st1" d="M149.8,349.5V346c0-3.3,2.7-6,6-6l0,0c3.3,0,6,2.7,6,6v3.5"/>
<path class="st1" d="M170.7,364v2.4c0,2.3-1.9,4.2-4.2,4.2l0,0c-2.3,0-4.2-1.9-4.2-4.2V364"/>
<polygon class="st1" points="145,359.6 143.8,358.5 142.7,359.6 141.6,360.8 141.6,366.4 146.1,366.4 146.1,360.8 "/>
<rect x="157.4" y="360.9" class="st1" width="24" height="18.6"/>
<line class="st1" x1="175.6" y1="360.9" x2="175.6" y2="379.5"/>
<polyline class="st1" points="175.6,379.5 178.6,374.1 178.6,360.9 "/>
<line class="st1" x1="181.3" y1="379.5" x2="178.6" y2="374.1"/>
<g>
	<path class="st3" d="M23.3,7.1c8.7,0,15.8,5.4,15.8,12c0,6.7-7.1,12.1-15.8,12.1c-0.7,0-1.5,0-2.1-0.1c-0.1,0-0.2,0.1-0.2,0.1
		l-6.5,3.1c-0.1,0-0.1,0-0.2,0c-0.3,0-0.5-0.3-0.5-0.6l1.2-3.9c0.1-0.2,0-0.5-0.2-0.6c-4.3-2.1-7.1-5.8-7.1-10.1
		C7.5,12.5,14.6,7.1,23.3,7.1 M23.3,3.1c-10.9,0-19.8,7.2-19.8,16.1c0,4.8,2.5,9.1,6.8,12.1l-0.4,1.2c0,0.1-0.1,0.2-0.1,0.4
		c-0.3,1.3,0.1,2.7,0.9,3.8c0.9,1,2.1,1.6,3.5,1.6c0.7,0,1.3-0.2,1.9-0.4l5.7-2.7c0.5,0,1,0,1.4,0c10.9,0,19.8-7.2,19.8-16.1
		C43.1,10.2,34.2,3.1,23.3,3.1L23.3,3.1z"/>
</g>
<circle class="st1" cx="289.3" cy="360.7" r="13.3"/>
<line class="st1" x1="283.6" y1="360.7" x2="294.7" y2="360.7"/>
<line class="st1" x1="289.1" y1="355.1" x2="289.1" y2="366.3"/>
<line class="st1" x1="333.7" y1="354.7" x2="355.4" y2="354.7"/>
<line class="st1" x1="333.7" y1="364" x2="355.4" y2="364"/>
<line class="st1" x1="333.7" y1="373.3" x2="355.4" y2="373.3"/>
<line class="st1" x1="398.9" y1="358.5" x2="422.5" y2="358.5"/>
<polyline class="st1" points="409.3,368.8 398.9,358.5 409.3,348.1 "/>
<line class="st1" x1="476.1" y1="358.5" x2="452.5" y2="358.5"/>
<polyline class="st1" points="465.7,348.1 476.1,358.5 465.7,368.8 "/>
</svg>
