<?xml version="1.0" encoding="utf-8"?>
<!-- Generator: Adobe Illustrator 25.2.3, SVG Export Plug-In . SVG Version: 6.00 Build 0)  -->
<svg version="1.1" id="Layer_2_1_" xmlns="http://www.w3.org/2000/svg" xmlns:xlink="http://www.w3.org/1999/xlink" x="0px" y="0px"
	 viewBox="0 0 69.2 65.6" style="enable-background:new 0 0 69.2 65.6;" xml:space="preserve">
<style type="text/css">
	.st0{fill:none;stroke:#333333;stroke-miterlimit:10;}
	.st1{fill:none;stroke:#1B1B1B;stroke-width:1.5;stroke-miterlimit:10;}
	.st2{fill:none;stroke:#1B1B1B;stroke-width:1.5;stroke-linecap:round;stroke-linejoin:round;stroke-miterlimit:10;}
	.st3{fill:none;stroke:#1B1B1B;stroke-width:1.5;stroke-linecap:round;stroke-miterlimit:10;}
	.st4{fill:none;stroke:#333333;stroke-linecap:round;stroke-linejoin:round;stroke-miterlimit:10;}
	.st5{fill:none;stroke:#333333;stroke-linecap:round;stroke-miterlimit:10;}
	.st6{fill:none;stroke:#1B1B1B;stroke-width:1.5;stroke-linejoin:round;stroke-miterlimit:10;}
	.st7{fill:none;stroke:#1B1B1B;stroke-miterlimit:10;}
	.st8{fill:none;stroke:#1B1B1B;stroke-linecap:round;stroke-linejoin:round;stroke-miterlimit:10;}
	.st9{fill:none;stroke:#1B1B1B;stroke-linecap:round;stroke-miterlimit:10;}
	.st10{fill:none;stroke:#1B1B1B;stroke-linejoin:round;stroke-miterlimit:10;}
	.st11{fill:none;stroke:#333333;stroke-width:1;stroke-linecap:round;stroke-linejoin:round;stroke-miterlimit:10.0004;}
</style>
<path class="st0" d="M-355.7,418.6c0-3.8,0-7.7,0-9.9c0-4,2.9-9.4-3.4-9.4s-45.9,0-49.9,0s-8.2,0.2-6.5,7.7c0.6,2.9,0.8,12.8,0.7,16
	c-0.1,3.2-0.7,9.1,0.7,10.6s3,1,12.1,1c6.5,0,23.3,0,33.6,0"/>
<path class="st0" d="M-355.7,428.5c0-0.6,0-0.8,0-1.5c0-1.8,0-3.9,0-6.2"/>
<path class="st0" d="M-412.2,434.6c0,0-0.5,9.1-1.4,11.9c-1,2.9-1.7,6.5,5.1,6.5c5.9,0,29.1,0,40.1,0"/>
<line class="st0" x1="-388.5" y1="399.3" x2="-388.5" y2="418.3"/>
<line class="st0" x1="-382.8" y1="399.3" x2="-382.8" y2="420.3"/>
<line class="st0" x1="-388.5" y1="442.9" x2="-388.5" y2="453.1"/>
<line class="st0" x1="-382.8" y1="442.9" x2="-382.8" y2="453.1"/>
<path class="st0" d="M-384.6,434.5h-1.7c-1,0-1.9-0.9-1.9-1.9v-1.7c0-1,0.9-1.9,1.9-1.9h1.7c1,0,1.9,0.9,1.9,1.9v1.7
	C-382.7,433.7-383.6,434.5-384.6,434.5z"/>
<path class="st0" d="M-387.8,429.7l-0.9-8.2c-0.1-0.6,0.4-1.2,1-1.2h4.3c0.6,0,1.1,0.5,1,1.1l-0.7,8.2"/>
<path class="st0" d="M-387.8,433.8l-0.9,8.2c-0.1,0.6,0.4,1.2,1,1.2h4.3c0.6,0,1.1-0.5,1-1.1l-0.7-8.2"/>
<polyline class="st0" points="-387.3,420.3 -389.7,416.6 -394.5,420 -387.9,429.3 "/>
<polyline class="st0" points="-388.8,442.9 -390.2,444.3 -394.5,439.3 -388,433.5 "/>
<circle class="st0" cx="-410.3" cy="427.4" r="2.7"/>
<polyline class="st0" points="-379.9,434.6 -379.9,425.5 -372,425.5 -372,434.5 "/>
<line class="st0" x1="-405.7" y1="429.7" x2="-387.8" y2="429.7"/>
<line class="st0" x1="-382.7" y1="429.7" x2="-379.9" y2="429.7"/>
<path class="st0" d="M-413.6,314.9c0.6,2.9,0.8,12.8,0.7,16s-0.7,9.1,0.7,10.6c1.4,1.4,3,1,12.1,1s37.3,0,41.6,0s4.8-2.4,4.8-7.6
	s0-14.3,0-18.3s2.9-9.4-3.4-9.4s-45.9,0-49.9,0S-415.2,307.4-413.6,314.9z"/>
<path class="st0" d="M-410.2,342.5c0,0-0.5,9.1-1.4,11.9c-1,2.9-1.7,6.5,5.1,6.5c7,0,38.3,0,44.6,0s9.6-0.7,7.8-5.8
	c-1.7-5.1-2-13.1-2-13.1"/>
<line class="st0" x1="-386.5" y1="307.2" x2="-386.5" y2="326.2"/>
<line class="st0" x1="-380.8" y1="307.2" x2="-380.8" y2="328.2"/>
<line class="st0" x1="-386.5" y1="350.8" x2="-386.5" y2="361"/>
<line class="st0" x1="-380.8" y1="350.8" x2="-380.8" y2="361"/>
<path class="st0" d="M-382.6,342.4h-1.7c-1,0-1.9-0.9-1.9-1.9v-1.7c0-1,0.9-1.9,1.9-1.9h1.7c1,0,1.9,0.9,1.9,1.9v1.7
	C-380.7,341.6-381.6,342.4-382.6,342.4z"/>
<path class="st0" d="M-385.8,337.6l-0.9-8.2c-0.1-0.6,0.4-1.2,1-1.2h4.3c0.6,0,1.1,0.5,1,1.1l-0.7,8.2"/>
<path class="st0" d="M-385.8,341.7l-0.9,8.2c-0.1,0.6,0.4,1.2,1,1.2h4.3c0.6,0,1.1-0.5,1-1.1l-0.7-8.2"/>
<polyline class="st0" points="-385.3,328.2 -387.7,324.5 -392.5,327.9 -385.9,337.2 "/>
<polyline class="st0" points="-386.8,350.8 -388.3,352.2 -392.5,347.2 -386,341.4 "/>
<circle class="st0" cx="-408.3" cy="335.3" r="2.7"/>
<polyline class="st0" points="-377.9,342.5 -377.9,333.4 -370,333.4 -370,342.4 "/>
<line class="st0" x1="-403.7" y1="337.6" x2="-385.8" y2="337.6"/>
<line class="st0" x1="-380.7" y1="337.6" x2="-377.9" y2="337.6"/>
<path class="st1" d="M167.7,9.6c2.3,0,11.1,0,12.8,0s1.8-1.4,1.4-2.4c-0.2-0.7-0.8-0.9-1.9-0.9c-1.1,0-10,0.9-11.4,1.1
	C166.8,7.7,166.6,9.6,167.7,9.6z"/>
<polyline class="st1" points="174.8,9.6 174.8,14.6 179.1,14.6 179.1,9.6 "/>
<path class="st1" d="M172.4,19.9v-4c0-0.7,0.5-1.2,1.2-1.2h6.7c0.7,0,1.2,0.5,1.2,1.2V20L172.4,19.9L172.4,19.9L172.4,19.9z"/>
<path class="st1" d="M172.4,19.9l-7.7,1.7c-0.2,0.1-0.2,0.3,0,0.3h24.4c0.2,0,0.2-0.2,0-0.2l-7.7-1.8"/>
<path class="st1" d="M185.2,59.3h-16.5c-2.3,0-4.1-1.8-4.1-4.1V21.9h24.6v33.4C189.2,57.5,187.4,59.3,185.2,59.3z"/>
<path class="st1" d="M105.4,18.4v-6.8c0-0.6,0.5-1.1,1-1.1h6.6c0.6,0,1,0.5,1,1.1v6.8H105.4z"/>
<path class="st1" d="M105.4,18.4l-7.3,3c-0.2,0.1-0.2,0.3,0,0.3h23.1c0.2,0,0.2-0.2,0-0.2l-7.3-3.1"/>
<path class="st1" d="M117.6,59.3h-15.5c-2.2,0-3.9-1.8-3.9-3.9V21.6h23.3v33.7C121.4,57.5,119.7,59.3,117.6,59.3z"/>
<path class="st2" d="M184.8,28.5H169v13h5.4c-3.1,1.1-5.4,4-5.4,7.5v2.4h15.8V49c0-3.5-2.3-6.4-5.4-7.5h5.4V28.5L184.8,28.5z"/>
<line class="st2" x1="173.6" y1="33.3" x2="180.3" y2="33.3"/>
<line class="st2" x1="172.2" y1="35.2" x2="181.8" y2="35.2"/>
<line class="st2" x1="172.8" y1="37.3" x2="181" y2="37.3"/>
<path class="st3" d="M182.7,49.4c0-3.5-2.6-6.3-5.7-6.3c-3.1,0-5.7,2.8-5.7,6.3"/>
<path class="st1" d="M198.1,9.6c2.3,0,11.1,0,12.8,0s1.8-1.4,1.4-2.4c-0.2-0.7-0.8-0.9-1.9-0.9c-1.1,0-10,0.9-11.4,1.1
	C197.3,7.7,197,9.6,198.1,9.6z"/>
<polyline class="st1" points="205.2,9.6 205.2,14.6 209.6,14.6 209.6,9.6 "/>
<path class="st1" d="M202.8,19.9l-7.7,1.7c-0.2,0.1-0.2,0.3,0,0.3h24.4c0.2,0,0.2-0.2,0-0.2l-7.7-1.8"/>
<path class="st2" d="M199.5,51.4h15.7v-13h-5.4c3.1-1.1,5.4-4,5.4-7.5v-2.4h-15.8v2.4c0,3.5,2.3,6.4,5.4,7.5h-5.4L199.5,51.4
	L199.5,51.4L199.5,51.4z"/>
<path class="st3" d="M201.6,30.4c0,3.5,2.6,6.3,5.7,6.3s5.7-2.8,5.7-6.3"/>
<g>
	<path class="st0" d="M-366.1,420.7c1.7,0,8.4,0,9.6,0s1.3-1.1,1.1-1.8c-0.2-0.5-0.6-0.7-1.4-0.7s-7.6,0.7-8.6,0.8
		C-366.7,419.2-366.9,420.7-366.1,420.7z"/>
	<polyline class="st0" points="-360.7,420.7 -360.7,424.4 -357.5,424.4 -357.5,420.7 	"/>
	<rect x="-362.6" y="424.4" class="st0" width="6.9" height="4"/>
	<path class="st0" d="M-362.6,428.5l-5.8,1.3c-0.1,0-0.1,0.2,0,0.2h18.4c0.1,0,0.1-0.1,0-0.2l-5.8-1.4"/>
	<path class="st0" d="M-353,458.2h-12.1c-1.8,0-3.2-1.4-3.2-3.2v-25h18.6v25C-349.8,456.7-351.3,458.2-353,458.2z"/>
	<path class="st4" d="M-365.1,452.2h11.9v-9.8h-4.1c2.4-0.8,4.1-3,4.1-5.6V435h-11.9v1.8c0,2.6,1.7,4.8,4.1,5.6h-4.1V452.2z"/>
	<line class="st4" x1="-356.6" y1="448.7" x2="-361.7" y2="448.7"/>
	<line class="st4" x1="-355.6" y1="447.1" x2="-362.8" y2="447.1"/>
	<line class="st4" x1="-356.1" y1="445.6" x2="-362.2" y2="445.6"/>
	<path class="st5" d="M-363.5,436.4c0,2.6,1.9,4.7,4.3,4.7s4.3-2.1,4.3-4.7"/>
</g>
<path class="st6" d="M-354.2,14.5h-7.1l0.7-7.2c0-0.3,0.2-0.5,0.5-0.5h4.6c0.3,0,0.5,0.2,0.5,0.5L-354.2,14.5z"/>
<path class="st2" d="M-349.4,18.4C-349.4,18.4-349.4,18.5-349.4,18.4c-0.4,0.2-3.8,0.8-8.4,0.8c-5.1,0-8-0.8-8.4-0.8l0,0l4.8-3.9
	l0,0h7.1l0,0L-349.4,18.4z"/>
<path class="st2" d="M-349.4,18.5l3.7,39.5c0.1,0.4-0.3,0.8-0.7,0.8h-23c-0.4,0-0.8-0.4-0.7-0.8l3.7-39.5"/>
<path class="st1" d="M202.8,19.9v-4c0-0.7,0.5-1.2,1.2-1.2h6.7c0.7,0,1.2,0.5,1.2,1.2V20L202.8,19.9L202.8,19.9L202.8,19.9z"/>
<path class="st2" d="M-357.8,23.7c-3.6,0-6.4,2.9-6.4,6.4V43h12.9V30.1C-351.3,26.5-354.2,23.7-357.8,23.7z"/>
<line class="st2" x1="-367.9" y1="55.8" x2="-347.5" y2="55.8"/>
<path class="st2" d="M-362.1,31.3v-0.9c0-2.6,1.9-4.6,4.3-4.6s4.3,2.1,4.3,4.6v0.9"/>
<path class="st2" d="M-360.7,40.1"/>
<path class="st2" d="M-354.9,40.1"/>
<path class="st2" d="M-361.9,38"/>
<path class="st2" d="M-353.7,38"/>
<path class="st2" d="M-361.3,36"/>
<path class="st2" d="M-354.3,36"/>
<g>
	<path class="st0" d="M-342.1,453.2h4.6l-0.5,4.6c0,0.2-0.2,0.3-0.3,0.3h-3c-0.2,0-0.3-0.1-0.3-0.3L-342.1,453.2z"/>
	<path class="st5" d="M-345.3,450.7L-345.3,450.7c0.3-0.1,2.4-0.6,5.4-0.6c3.3,0,5.2,0.5,5.4,0.5l0,0l-3.1,2.5l0,0h-4.6l0,0
		L-345.3,450.7z"/>
	<path class="st5" d="M-345.3,450.7l-2.4-25.5c0-0.3,0.2-0.5,0.4-0.5h14.8c0.3,0,0.5,0.2,0.4,0.5l-2.4,25.5"/>
	<path class="st4" d="M-339.9,447.3c2.3,0,4.2-1.9,4.2-4.2v-8.3h-8.3v8.3C-344,445.5-342.1,447.3-339.9,447.3z"/>
	<line class="st5" x1="-333.3" y1="426.6" x2="-346.5" y2="426.6"/>
	<path class="st5" d="M-337.1,442.4v0.6c0,1.7-1.2,3-2.8,3s-2.8-1.3-2.8-3v-0.6"/>
	<line class="st4" x1="-341.7" y1="436.7" x2="-338" y2="436.7"/>
	<line class="st4" x1="-342.5" y1="438" x2="-337.2" y2="438"/>
	<line class="st4" x1="-342.1" y1="439.4" x2="-337.6" y2="439.4"/>
</g>
<path class="st2" d="M109.7,29.4c-4.1,0-7.4,3.3-7.4,7.4v12.9h14.9V36.8C117.2,32.7,113.9,29.4,109.7,29.4z"/>
<path class="st2" d="M104.8,38.3v-1c0-3,2.2-5.3,4.9-5.3s4.9,2.4,4.9,5.3v1"/>
<line class="st2" x1="113.1" y1="46.6" x2="106.5" y2="46.6"/>
<line class="st2" x1="114.5" y1="44.5" x2="105.1" y2="44.5"/>
<line class="st2" x1="113.9" y1="42.2" x2="105.8" y2="42.2"/>
<path class="st1" d="M135.2,18.4v-6.8c0-0.6,0.5-1.1,1-1.1h6.6c0.6,0,1,0.5,1,1.1v6.8H135.2z"/>
<path class="st1" d="M135.2,18.4l-7.3,3c-0.2,0.1-0.2,0.3,0,0.3h23c0.2,0,0.2-0.2,0-0.2l-7.3-3.1"/>
<path class="st1" d="M147.3,59.3h-15.5c-2.2,0-3.9-1.8-3.9-3.9V21.6h23.3v33.7C151.2,57.5,149.5,59.3,147.3,59.3z"/>
<path class="st2" d="M139.5,49.8c4.1,0,7.4-3.3,7.4-7.4v-13H132v12.9C132.1,46.4,135.4,49.8,139.5,49.8z"/>
<path class="st2" d="M144.4,40.9v1c0,3-2.2,5.3-4.9,5.3s-4.9-2.4-4.9-5.3v-1"/>
<line class="st2" x1="136.2" y1="32.5" x2="142.8" y2="32.5"/>
<line class="st2" x1="134.8" y1="34.7" x2="144.2" y2="34.7"/>
<line class="st2" x1="135.4" y1="36.9" x2="143.5" y2="36.9"/>
<line class="st2" x1="-355.1" y1="40" x2="-360.8" y2="40"/>
<line class="st2" x1="-353.9" y1="38" x2="-362" y2="38"/>
<line class="st2" x1="-354.4" y1="36" x2="-361.4" y2="36"/>
<line class="st2" x1="203.9" y1="42.7" x2="210.6" y2="42.7"/>
<line class="st2" x1="202.5" y1="44.7" x2="212.1" y2="44.7"/>
<line class="st2" x1="203.1" y1="46.6" x2="211.3" y2="46.6"/>
<path class="st1" d="M215.7,59.3h-16.6c-2.3,0-4.1-1.8-4.1-4.1V21.9h24.7v33.4C219.7,57.5,217.9,59.3,215.7,59.3z"/>
<path class="st7" d="M37.3,24.4l-7.8-2.9"/>
<path class="st7" d="M15.9,21.5L8,24.4"/>
<path class="st8" d="M14,50.2h17.2V38.1h-5.8c3.4-1.1,5.8-4.3,5.8-8.2v-2.7H14v2.7c0,3.8,2.4,7,5.8,8.2H14V50.2z"/>
<path class="st9" d="M16.3,29.5c0,3.8,2.8,6.9,6.2,6.9s6.2-3.1,6.2-6.9"/>
<path class="st7" d="M15.8,21.5v-11c0-0.9,0.8-1.7,1.7-1.7h10.4c0.9,0,1.7,0.8,1.7,1.7l-0.1,11L15.8,21.5z"/>
<line class="st8" x1="18.7" y1="41.7" x2="26.2" y2="41.7"/>
<line class="st8" x1="17.3" y1="43.9" x2="27.7" y2="43.9"/>
<line class="st8" x1="18" y1="46.1" x2="26.9" y2="46.1"/>
<line class="st4" x1="-337.4" y1="522.3" x2="-320.9" y2="522.3"/>
<line class="st4" x1="-340.7" y1="526.3" x2="-317.3" y2="526.3"/>
<line class="st4" x1="-339.1" y1="530.3" x2="-319.2" y2="530.3"/>
<path class="st10" d="M26.6,59.1h-8C12.8,59.1,8,54.3,8,48.4v-24h29.3v23.9C37.3,54.2,32.5,59.1,26.6,59.1z"/>
<rect x="233" y="16.6" class="st2" width="17" height="42.7"/>
<rect x="257.8" y="42.2" class="st2" width="17" height="17"/>
<rect x="260.5" y="26.3" class="st2" width="11.7" height="15.9"/>
<path class="st2" d="M270.8,26.3h-8.9v-5.4c0-1.1,0.9-2,2-2h4.9c1.1,0,2,0.9,2,2V26.3z"/>
<line class="st2" x1="238.1" y1="23.5" x2="244.9" y2="23.5"/>
<line class="st2" x1="236.7" y1="26.3" x2="246.4" y2="26.3"/>
<line class="st2" x1="237.4" y1="29.1" x2="245.6" y2="29.1"/>
<line class="st2" x1="236.7" y1="36.4" x2="246.4" y2="36.4"/>
<line class="st2" x1="237.4" y1="39.3" x2="245.6" y2="39.3"/>
<circle class="st2" cx="241.5" cy="49.8" r="4.8"/>
<polyline class="st4" points="-398.9,545.1 -418.6,545.1 -418.6,515.1 -390,515.1 -390,526.5 "/>
<line class="st4" x1="-397" y1="515.1" x2="-397" y2="526.5"/>
<line class="st4" x1="-393.6" y1="515.1" x2="-393.6" y2="526.5"/>
<path class="st4" d="M-400.6,515.1v-3.5c0-3.3-2.7-6-6-6l0,0c-3.3,0-6,2.7-6,6v3.5v8.9"/>
<path class="st4" d="M-406.5,515.1v-3.5c0-3.3,2.7-6,6-6l0,0c3.3,0,6,2.7,6,6v3.5"/>
<path class="st4" d="M-385.6,529.6v2.4c0,2.3-1.9,4.2-4.2,4.2l0,0c-2.3,0-4.2-1.9-4.2-4.2v-2.4"/>
<polygon class="st4" points="-411.4,525.2 -412.5,524 -413.6,525.2 -414.8,526.4 -414.8,532 -410.2,532 -410.2,526.4 "/>
<rect x="-398.9" y="526.5" class="st4" width="24" height="18.6"/>
<line class="st4" x1="-380.7" y1="526.5" x2="-380.7" y2="545.1"/>
<polyline class="st4" points="-380.7,545.1 -377.7,539.7 -377.7,526.5 "/>
<line class="st4" x1="-375" y1="545.1" x2="-377.7" y2="539.7"/>
<path class="st4" d="M-329,511.4c-10.6,0-19.2,6.6-19.2,14.7c0,5.2,3.5,9.7,8.7,12.3c0.3,0.1,0.4,0.4,0.3,0.7l-1.4,4.7
	c-0.1,0.5,0.4,0.9,0.8,0.7l7.9-3.8c0.1,0,0.2-0.1,0.3-0.1c0.8,0.1,1.7,0.1,2.6,0.1c10.6,0,19.2-6.6,19.2-14.7
	C-309.9,518-318.4,511.4-329,511.4z"/>
<ellipse transform="matrix(0.8112 -0.5847 0.5847 0.8112 -358.146 -56.8482)" class="st11" cx="-267.1" cy="526.3" rx="13.3" ry="13.3"/>
<line class="st4" x1="-272.8" y1="526.3" x2="-261.6" y2="526.3"/>
<line class="st4" x1="-267.2" y1="520.7" x2="-267.2" y2="531.9"/>
<line class="st4" x1="-222.7" y1="520.3" x2="-200.9" y2="520.3"/>
<line class="st4" x1="-222.7" y1="529.6" x2="-200.9" y2="529.6"/>
<line class="st4" x1="-222.7" y1="538.8" x2="-200.9" y2="538.8"/>
<line class="st4" x1="-157.4" y1="524" x2="-133.9" y2="524"/>
<polyline class="st4" points="-147,534.4 -157.4,524 -147,513.7 "/>
<line class="st4" x1="-80.3" y1="524" x2="-103.8" y2="524"/>
<polyline class="st4" points="-90.6,513.7 -80.3,524 -90.6,534.4 "/>
</svg>
