<?xml version="1.0" encoding="utf-8"?>
<!-- Generator: Adobe Illustrator 25.0.0, SVG Export Plug-In . SVG Version: 6.00 Build 0)  -->
<svg version="1.1" id="Layer_1" xmlns="http://www.w3.org/2000/svg" xmlns:xlink="http://www.w3.org/1999/xlink" x="0px" y="0px"
	 viewBox="0 0 278.2 278.2" style="enable-background:new 0 0 278.2 278.2;" xml:space="preserve">
<style type="text/css">
	.st0{fill:#FFFFFF;}
</style>
<path class="st0" d="M139.1,0C62.4,0,0,62.4,0,139.1s62.4,139.1,139.1,139.1s139.1-62.4,139.1-139.1S215.8,0,139.1,0z M139.1,277
	C63.1,277,1.2,215.2,1.2,139.1S63.1,1.2,139.1,1.2S277,63.1,277,139.1S215.2,277,139.1,277z"/>
<path class="st0" d="M51.3,151.2c0.4,0,0.7,0.2,0.7,0.5c0,0.1,0,0.1,0,0.2v2.5c0,0.2,0.2,0.5,0.4,0.5c0,0,0.1,0,0.1,0l0,0
	c0.1,0,0.3-0.1,0.3-0.2c0.1-0.1,0.1-0.2,0.1-0.3l-0.2-8.8c0-0.1-0.1-0.3-0.2-0.3c-0.1-0.1-0.2-0.1-0.3-0.1l0,0
	c-0.1,0-0.3,0.1-0.3,0.1c-0.1,0.1-0.1,0.2-0.1,0.4l0.1,3.4c0.1,0.3-0.2,0.7-0.5,0.7c-0.1,0-0.1,0-0.2,0l-27.7,0.6l29-22.4l0,0v-1.4
	L20,127.3l0,0c-0.2,0-0.4,0-0.5-0.2c-0.1-0.1-0.2-0.3-0.2-0.6l-0.1-2.6c0-0.1-0.1-0.3-0.2-0.3c-0.1-0.1-0.2-0.1-0.3-0.1l0,0
	c-0.1,0-0.3,0.1-0.4,0.2c-0.1,0.1-0.1,0.2-0.1,0.3l0.2,8.8c0,0.1,0.1,0.3,0.2,0.3c0.1,0.1,0.2,0.1,0.3,0.1l0,0
	c0.2,0,0.5-0.1,0.5-0.4c0,0,0-0.1,0-0.1l-0.1-3.4c-0.1-0.4,0.2-0.7,0.5-0.7c0.1,0,0.1,0,0.2,0l26.3-0.5l-27.6,20.8l0,0l0.1,6.2
	c0,0.1,0.1,0.3,0.1,0.3c0.1,0.1,0.2,0.1,0.3,0.1l0,0c0.1,0,0.3,0,0.4-0.1c0.1-0.1,0.1-0.2,0.1-0.4l0-2.5c-0.1-0.3,0.2-0.7,0.5-0.7
	c0.1,0,0.1,0,0.2,0L51.3,151.2L51.3,151.2z"/>
<path class="st0" d="M29.7,107.3c2.2,2.3,4.9,4.1,7.8,5.2c2.6,1.1,5.3,1.6,8.1,1.7c0.4,0,0.8,0,1.1,0c2.8-0.1,5.5-1,7.9-2.6
	c4.6-3.3,6.9-8.9,5.8-14.4c-0.6-2.7-1.9-5.3-3.9-7.3c-2.2-2.3-4.9-4.1-7.8-5.2c-2.9-1.2-6.1-1.8-9.3-1.7c-2.8,0.1-5.5,1-7.9,2.6
	c-4.6,3.3-6.9,8.9-5.8,14.4C26.4,102.7,27.7,105.3,29.7,107.3z M27.5,92.3c0.8-2,2.3-3.6,4.2-4.5c1.9-0.9,4.1-1.4,6.2-1.4h0.8
	c2.9,0.2,5.8,0.9,8.5,2c2.8,1.1,5.3,2.6,7.5,4.5c1.9,1.5,3.3,3.5,4.1,5.8c1.5,4.1-0.4,8.7-4.3,10.7c-2.2,1-4.6,1.5-7,1.3
	c-2.9-0.2-5.8-0.8-8.6-2c-2.7-1.1-5.3-2.6-7.5-4.5c-1.8-1.6-3.3-3.6-4.1-5.8C26.6,96.4,26.7,94.2,27.5,92.3L27.5,92.3z"/>
<path class="st0" d="M43.5,63.6l1.8-1.8c0.2-0.3,0.6-0.3,0.9-0.1c0,0,0.1,0.1,0.1,0.1l21.8,21.8c0.3,0.2,0.3,0.6,0.1,0.9
	c0,0-0.1,0.1-0.1,0.1l0,0l-1.8,1.8c-0.1,0.1-0.2,0.2-0.2,0.3c0,0.1,0.1,0.3,0.2,0.3c0.1,0.1,0.2,0.1,0.3,0.1c0.1,0,0.3,0,0.3-0.1
	l6.2-6.3c0.1-0.1,0.1-0.2,0.1-0.3c0-0.1,0-0.3-0.1-0.3C73.2,80,73.1,80,72.9,80c-0.1,0-0.3,0-0.3,0.1l-2.4,2.4
	c-0.2,0.3-0.6,0.3-0.9,0.1c0,0-0.1-0.1-0.1-0.1L49.5,63l36.2,5.4l0,0l1-0.9l0,0l-23-23c-0.3-0.2-0.3-0.6-0.1-0.9
	c0,0,0.1-0.1,0.1-0.1l1.8-1.8c0.1-0.1,0.1-0.2,0.1-0.3c0-0.1,0-0.3-0.1-0.3c-0.1-0.1-0.2-0.1-0.3-0.1c-0.1,0-0.3,0-0.3,0.1l-6.2,6.3
	c-0.1,0.1-0.1,0.2-0.1,0.3c0,0.1,0.1,0.2,0.1,0.3c0.1,0.2,0.4,0.2,0.6,0.1c0,0,0.1-0.1,0.1-0.1l2.4-2.4c0.2-0.3,0.6-0.3,0.9-0.1
	c0,0,0.1,0.1,0.1,0.1L81.3,64l-34.1-5.5l0,0l-4.4,4.4c-0.1,0.1-0.1,0.2-0.1,0.3c0,0.1,0.1,0.2,0.1,0.3
	C42.9,63.8,43.2,63.9,43.5,63.6C43.4,63.7,43.5,63.7,43.5,63.6z"/>
<path class="st0" d="M83.3,30.6c0.1,0,0.3,0,0.4,0l2.3-1c0.2-0.1,0.4-0.1,0.6,0c0.2,0.1,0.3,0.2,0.4,0.4l11.6,28.5
	c0.2,0.3,0.1,0.7-0.2,0.9c-0.1,0-0.1,0.1-0.2,0.1l-2.3,1c-0.2,0.1-0.4,0.3-0.3,0.5c0,0,0,0.1,0,0.1c0,0.1,0.1,0.2,0.3,0.3
	c0.1,0,0.1,0,0.2,0h0.2l10.6-4.4c0.1,0,0.2-0.1,0.3-0.3c0-0.1,0-0.3,0-0.4c-0.1-0.1-0.1-0.2-0.3-0.3c-0.1-0.1-0.3-0.1-0.4,0
	l-3.6,1.5c-0.2,0.1-0.4,0.1-0.6,0c-0.2-0.1-0.3-0.3-0.4-0.4L95.4,41l6.2-2.5c0.8-0.4,1.6-0.5,2.5-0.5c0.8,0.1,1.5,0.5,2,1
	c0.8,0.9,1.5,2,2,3.2c0.1,0.1,0.2,0.2,0.3,0.2c0.1,0,0.2,0,0.3,0c0.1,0,0.2-0.1,0.2-0.2c0-0.1,0-0.2,0-0.4l-4.6-11.4
	c0-0.1-0.1-0.2-0.2-0.3c-0.1,0-0.2,0-0.3,0c-0.1,0-0.2,0.1-0.2,0.2c0,0.1,0,0.2,0,0.4c0.4,1.1,0.5,2.3,0.6,3.5c0,0.7-0.3,1.4-0.7,2
	c-0.6,0.6-1.3,1.1-2.1,1.3L95,40.1L90.1,28l9.4-3.8c1.1-0.5,2.2-0.7,3.4-0.8h0.1c1.1,0,2.1,0.3,3,0.9c1.2,0.8,2.3,1.8,3.3,2.8
	c0.2,0.2,0.4,0.3,0.6,0.1c0.1,0,0.2-0.1,0.3-0.3c0-0.1,0-0.3-0.1-0.4l-0.1-0.1l-3.8-6.1l0,0l-22.9,9.3c-0.1,0-0.2,0.1-0.3,0.3
	c0,0.1,0,0.3,0,0.4C83.1,30.5,83.2,30.5,83.3,30.6z"/>
<path class="st0" d="M135.2,49.8l-2.5,0.3c-0.2,0-0.4,0-0.6-0.1c-0.1-0.1-0.2-0.3-0.2-0.5l-3.1-30.6c-0.1-0.3,0.1-0.7,0.4-0.8
	c0.1,0,0.1,0,0.2,0l2.5-0.3c0.1,0,0.2-0.1,0.3-0.2c0.2-0.2,0.2-0.5,0-0.7c0,0,0,0,0,0c-0.1-0.1-0.2-0.1-0.4-0.1l-10.1,1
	c-0.1,0-0.3,0.1-0.3,0.2c-0.1,0.1-0.1,0.2-0.1,0.4c0,0.1,0.1,0.3,0.2,0.4c0.1,0.1,0.2,0.1,0.4,0.1l2.5-0.3c0.2,0,0.4,0,0.6,0.1
	c0.1,0.1,0.2,0.3,0.2,0.5l3.1,30.6c0,0.2,0,0.4-0.1,0.6c-0.1,0.1-0.3,0.2-0.5,0.2l-2.5,0.3c-0.2,0-0.4,0.2-0.5,0.4c0,0,0,0.1,0,0.1
	c0,0.1,0.1,0.2,0.2,0.3c0.1,0.1,0.2,0.1,0.3,0.1l0,0l10.1-1c0.1,0,0.2-0.1,0.3-0.2c0.1-0.1,0.1-0.2,0.1-0.4c0-0.1-0.1-0.2-0.2-0.3
	C135.4,49.8,135.3,49.7,135.2,49.8z"/>
<path class="st0" d="M170.5,49.3c0.1-0.2,0.1-0.5,0-0.7c-0.1-0.1-0.2-0.2-0.4-0.2c-0.2,0-0.3,0.1-0.4,0.2c-1.4,1.6-3.3,2.9-5.4,3.5
	c-1.9,0.6-3.9,0.7-5.9,0.4c-2.1-0.4-4-1.6-5.4-3.3c-1.5-1.9-2.5-4.2-2.9-6.7c-0.5-2.9-0.4-5.9,0.2-8.8c0.5-2.9,1.6-5.7,3.1-8.2
	c1.2-2.1,2.9-3.9,5-5.2c1.8-1.1,3.9-1.5,5.9-1.1c2.6,0.4,4.9,1.8,6.3,4c1.5,2.7,2.2,5.7,2.1,8.7c0,0.2,0,0.3,0.1,0.4
	c0.1,0.1,0.2,0.2,0.3,0.2c0.1,0,0.3,0,0.4-0.1c0.1-0.1,0.2-0.3,0.2-0.4l1.5-10.7c0-0.1,0-0.2-0.1-0.3c0-0.1-0.1-0.1-0.2-0.1
	c-0.1,0-0.2,0-0.4,0.2l-1.2,2.3c-1.2-1.3-2.6-2.5-4.1-3.4c-1.7-0.9-3.5-1.6-5.4-1.9c-2.6-0.5-5.3-0.2-7.8,0.8
	c-2.5,1.1-4.7,3-6.3,5.2c-1.8,2.6-3,5.5-3.6,8.7c-0.7,3.1-0.6,6.3,0.1,9.4c0.7,2.7,2.1,5.2,4.1,7.2c2,1.9,4.5,3.2,7.2,3.7
	c1,0.2,2,0.3,2.9,0.3c1.4,0,2.7-0.2,4-0.6C167,52.4,168.9,51.1,170.5,49.3z"/>
<path class="st0" d="M180.9,61.3l9.3,5.9c0.1,0.1,0.2,0.1,0.2,0.1h0.1c0.1,0,0.2-0.1,0.3-0.2c0.1-0.1,0.1-0.2,0.1-0.4
	c0-0.1-0.1-0.2-0.2-0.3l-2.5-1.6c-0.3-0.1-0.5-0.5-0.3-0.8c0-0.1,0.1-0.1,0.1-0.2l17-26.6l4.9,3.1c0.9,0.5,1.7,1.2,2.3,2.1
	c0.4,0.7,0.5,1.4,0.5,2.2c-0.2,1.4-0.4,2.7-0.8,4c-0.1,0.3,0.1,0.6,0.3,0.8c0.1,0,0.2,0.1,0.2,0c0.2-0.1,0.3-0.2,0.4-0.3
	c0.1-0.1,0.1-0.2,0.2-0.4l2.5-6l0,0l-22.8-14.6l-4.4,4.8c-0.1,0.1-0.2,0.2-0.2,0.3c-0.1,0.1-0.2,0.3-0.1,0.4c0,0.1,0.1,0.2,0.1,0.2
	c0.2,0.2,0.6,0.2,0.8,0c1-0.9,2.1-1.7,3.3-2.4c0.7-0.4,1.4-0.6,2.2-0.5c1,0.2,2,0.6,2.8,1.2l4.9,3.1l-17,26.6
	c-0.2,0.3-0.5,0.5-0.9,0.3c0,0-0.1-0.1-0.1-0.1l-2.5-1.6c-0.1-0.1-0.2-0.1-0.4-0.1c-0.1,0-0.2,0.1-0.3,0.2c-0.1,0.1-0.1,0.2-0.1,0.4
	C180.7,61.2,180.7,61.3,180.9,61.3z"/>
<path class="st0" d="M227.4,56.5c0.1,0.1,0.2,0.3,0.2,0.5c0,0.2-0.1,0.4-0.3,0.5l-23.2,20.3c-0.2,0.3-0.7,0.3-0.9,0
	c0,0-0.1-0.1-0.1-0.1l-1.7-1.9c-0.1-0.1-0.2-0.2-0.3-0.2l0,0c-0.3,0-0.5,0.2-0.5,0.5c0,0.1,0,0.3,0.1,0.4l6.7,7.6
	c0.1,0.1,0.2,0.2,0.3,0.2l0,0c0.1,0,0.2,0,0.3-0.1c0.1-0.1,0.2-0.2,0.2-0.3c0-0.1,0-0.3-0.1-0.4l-1.7-1.9c-0.1-0.1-0.2-0.3-0.2-0.5
	c0-0.2,0.1-0.4,0.3-0.5l23.2-20.3c0.2-0.3,0.7-0.3,0.9,0c0,0,0.1,0.1,0.1,0.1l1.7,1.9c0.1,0.1,0.2,0.2,0.3,0.2c0.1,0,0.3,0,0.4-0.1
	c0.1-0.1,0.2-0.2,0.2-0.3c0-0.1,0-0.3-0.1-0.4l-6.7-7.6c-0.2-0.2-0.5-0.2-0.7,0c-0.1,0.1-0.2,0.2-0.2,0.3c0,0.1,0,0.3,0.1,0.4
	L227.4,56.5z"/>
<path class="st0" d="M220.9,88.4c-1.9,2.1-3.2,4.6-3.7,7.4c-1,5.5,1.4,11.1,6.1,14.3c2.4,1.5,5.1,2.4,7.9,2.5h0.8
	c2.9,0,5.8-0.7,8.5-1.8c2.9-1.2,5.6-3,7.7-5.3c1.9-2.1,3.2-4.6,3.8-7.4c1-5.5-1.4-11.1-6.1-14.3c-2.4-1.5-5.1-2.4-7.9-2.5
	C231.4,81.1,225.2,83.7,220.9,88.4L220.9,88.4z M238.7,84.7h1c2.1,0,4.1,0.4,6,1.2c4,1.9,5.9,6.5,4.5,10.6c-0.8,2.3-2.2,4.3-4,5.9
	c-2.2,1.9-4.7,3.5-7.5,4.6c-2.7,1.2-5.6,1.9-8.5,2.1c-2.4,0.2-4.8-0.2-7-1.2c-4-1.9-5.9-6.5-4.5-10.6c0.8-2.3,2.2-4.3,4-5.9
	C227.2,87.6,232.8,85.2,238.7,84.7L238.7,84.7z"/>
<path class="st0" d="M259.8,123.8c-0.1-0.1-0.2-0.2-0.3-0.2l0,0c-0.2,0-0.5,0.2-0.5,0.4c0,0,0,0.1,0,0.1l0,2.5
	c0,0.2-0.1,0.4-0.2,0.6c-0.1,0.1-0.3,0.2-0.5,0.2l0,0l-30.8-0.7c-0.2,0-0.4-0.1-0.6-0.2c-0.1-0.2-0.2-0.4-0.2-0.6l0.1-2.5
	c0-0.2-0.1-0.5-0.4-0.5c0,0-0.1,0-0.1,0l0,0c-0.1,0-0.2,0.1-0.3,0.1c-0.1,0.1-0.2,0.2-0.2,0.3l-0.2,8.8c0,0.1,0,0.3,0.1,0.4
	c0.1,0.1,0.2,0.2,0.3,0.2l0,0c0.1,0,0.2-0.1,0.3-0.1c0.1-0.1,0.1-0.2,0.1-0.4l0.1-3.4c0-0.4,0.2-0.7,0.6-0.7c0.1,0,0.1,0,0.2,0
	l27.7,0.6l-29.8,21.1l0,0v1.3v0.1l32.5,0.7c0.4,0,0.7,0.2,0.7,0.6c0,0.1,0,0.1,0,0.2v2.5c0,0.1,0,0.3,0.1,0.3
	c0.1,0.1,0.2,0.2,0.4,0.2l0,0c0.1,0,0.2-0.1,0.3-0.1c0.1-0.1,0.2-0.2,0.2-0.3l0.2-8.8c0-0.1,0-0.3-0.1-0.4c-0.1-0.1-0.2-0.1-0.3-0.1
	l0,0c-0.2,0-0.5,0.2-0.5,0.4c0,0,0,0.1,0,0.1l-0.1,3.4c0,0.2-0.1,0.4-0.2,0.6c-0.2,0.1-0.4,0.2-0.6,0.2l-26.4-0.5l28.4-19.6l0,0
	l0.1-6.2C260,124.1,259.9,123.9,259.8,123.8z"/>
<path class="st0" d="M248.6,170.9c-2.2-2.3-4.9-4.1-7.8-5.2c-2.6-1.1-5.3-1.6-8.1-1.7c-0.4,0-0.8,0-1.1,0c-2.8,0.1-5.5,1-7.9,2.6
	c-4.6,3.3-6.8,8.9-5.8,14.4c0.6,2.7,1.9,5.3,3.9,7.3c4.5,4.5,10.7,7,17.1,6.9c2.8-0.1,5.5-1,7.9-2.6c4.6-3.3,6.8-8.9,5.8-14.4
	C251.8,175.5,250.5,173,248.6,170.9z M250.8,185.9c-0.8,2-2.3,3.6-4.2,4.5c-1.9,0.9-4.1,1.4-6.2,1.4c-0.3,0-0.5,0-0.8,0
	c-5.9-0.4-11.5-2.7-16.1-6.5c-1.9-1.5-3.3-3.5-4.1-5.8c-1.5-4.1,0.4-8.7,4.3-10.7c2.2-1,4.6-1.5,7-1.3c5.9,0.4,11.5,2.7,16.1,6.5
	c1.8,1.6,3.3,3.6,4.1,5.8C251.6,181.8,251.6,184,250.8,185.9L250.8,185.9z"/>
<path class="st0" d="M234.7,214.6l-1.7,1.8c-0.2,0.3-0.6,0.3-0.9,0.1c0,0-0.1-0.1-0.1-0.1l-21.8-21.8c-0.3-0.2-0.3-0.6-0.1-0.9
	c0,0,0.1-0.1,0.1-0.1l0,0l1.8-1.8c0.1-0.1,0.2-0.2,0.2-0.4c0-0.1-0.1-0.3-0.2-0.4c-0.1-0.1-0.2-0.1-0.4-0.1c-0.1,0-0.2,0.1-0.3,0.1
	l-6.3,6.2c-0.1,0.1-0.1,0.2-0.1,0.4c0,0.1,0.1,0.2,0.1,0.3c0.2,0.2,0.5,0.2,0.7,0l2.4-2.4c0.2-0.3,0.6-0.3,0.9-0.1
	c0,0,0.1,0.1,0.1,0.1l19.6,19.6l-36.2-5.4l0,0l-0.9,1l0,0l23,23c0.3,0.2,0.3,0.6,0.1,0.9c0,0-0.1,0.1-0.1,0.1l-1.8,1.8
	c-0.1,0.1-0.1,0.2-0.1,0.4c0,0.3,0.2,0.5,0.5,0.5c0,0,0,0,0,0c0.1,0,0.2-0.1,0.3-0.1l6.2-6.3c0.1-0.1,0.1-0.2,0.1-0.3
	c0-0.1,0-0.3-0.1-0.4c-0.1-0.2-0.4-0.2-0.6-0.1c0,0-0.1,0.1-0.1,0.1l-2.4,2.4c-0.2,0.3-0.6,0.3-0.9,0.1c0,0-0.1-0.1-0.1-0.1
	L197,214.2l34,5.5l0,0l4.4-4.4c0.1-0.1,0.1-0.2,0.1-0.3c0-0.1,0-0.3-0.1-0.4C235.3,214.4,235,214.4,234.7,214.6
	C234.8,214.6,234.8,214.6,234.7,214.6z"/>
<path class="st0" d="M194.9,247.7c-0.1-0.1-0.3-0.1-0.4,0l-2.4,0.9c-0.2,0.1-0.4,0.1-0.6,0c-0.2-0.1-0.3-0.2-0.4-0.4l-11.6-28.5
	c-0.2-0.3-0.1-0.7,0.2-0.9c0.1,0,0.2-0.1,0.2-0.1l2.4-1c0.2-0.1,0.4-0.3,0.3-0.5c0,0,0-0.1,0-0.1c0-0.1-0.1-0.2-0.3-0.3
	c-0.1,0-0.1,0-0.2,0c-0.1,0-0.1,0-0.2,0l-10.6,4.4c-0.1,0-0.2,0.1-0.3,0.3c-0.1,0.1-0.1,0.3,0,0.4c0,0.1,0.1,0.2,0.3,0.3
	c0.1,0.1,0.3,0.1,0.4,0l3.6-1.4c0.2-0.1,0.4-0.1,0.6,0c0.2,0.1,0.3,0.3,0.4,0.4l6.6,16.1l-6.1,2.5c-0.8,0.4-1.6,0.5-2.5,0.5
	c-0.8-0.1-1.5-0.5-2-1.1c-0.8-0.9-1.5-2-2-3.2c-0.1-0.1-0.2-0.2-0.3-0.2c-0.1,0-0.2,0-0.3,0c-0.1,0-0.2,0.1-0.2,0.2
	c0,0.1,0,0.2,0,0.4l4.6,11.4c0,0.1,0.1,0.2,0.2,0.3c0.1,0.1,0.2,0.1,0.3,0c0.1,0,0.2-0.1,0.2-0.2c0-0.1,0-0.2,0-0.4
	c-0.4-1.1-0.5-2.3-0.6-3.5c0-0.7,0.3-1.4,0.7-2c0.6-0.6,1.3-1.1,2.1-1.3l6.1-2.5l5,12.2l-9.4,3.8c-1.1,0.5-2.2,0.7-3.4,0.8h-0.1
	c-1.1,0-2.1-0.3-3-0.9c-1.2-0.8-2.4-1.8-3.4-2.8c-0.1-0.2-0.4-0.3-0.6-0.1c-0.1,0-0.2,0.1-0.3,0.3c0,0.1,0,0.3,0.1,0.4l0.1,0.1
	l3.8,6.1l0,0l22.9-9.3c0.1-0.1,0.2-0.1,0.3-0.3c0-0.1,0-0.3,0-0.4C195.1,247.8,195,247.7,194.9,247.7z"/>
<path class="st0" d="M156.4,259.5l-2.5,0.2c-0.2,0-0.4,0-0.6-0.1c-0.1-0.1-0.2-0.3-0.2-0.5l-3.1-30.6c0-0.2,0-0.4,0.1-0.6
	c0.1-0.1,0.3-0.2,0.5-0.2l2.5-0.3c0.2,0,0.4-0.2,0.5-0.4c0,0,0-0.1,0-0.1c0-0.1-0.1-0.3-0.2-0.3c-0.1-0.1-0.2-0.1-0.3-0.1h-0.1
	l-10.1,1c-0.1,0-0.2,0.1-0.3,0.2c-0.1,0.1-0.1,0.2-0.1,0.4c0,0.1,0.1,0.3,0.2,0.3c0.1,0.1,0.2,0.1,0.4,0.1l2.5-0.3
	c0.2,0,0.4,0,0.6,0.1c0.1,0.1,0.2,0.3,0.2,0.5l3.1,30.6c0.1,0.3-0.1,0.7-0.5,0.8c-0.1,0-0.1,0-0.2,0l-2.5,0.3
	c-0.1,0-0.3,0.1-0.3,0.2c-0.1,0.1-0.1,0.2-0.1,0.4c0,0.1,0.1,0.3,0.2,0.3c0.1,0.1,0.2,0.1,0.4,0.1l10.1-1c0.1,0,0.2-0.1,0.3-0.2
	c0.1-0.1,0.1-0.2,0.1-0.3c0-0.1-0.1-0.3-0.2-0.4C156.7,259.6,156.6,259.5,156.4,259.5z"/>
<path class="st0" d="M127.7,228.5c-2-1.9-4.5-3.2-7.2-3.7c-1-0.2-2-0.3-2.9-0.3c-3.8,0-7.3,1.6-9.8,4.5c-0.1,0.2-0.1,0.5,0,0.7
	c0.1,0.1,0.3,0.2,0.4,0.1c0.2,0,0.3-0.1,0.4-0.2c1.4-1.6,3.3-2.8,5.4-3.5c1.9-0.6,3.9-0.7,5.9-0.4c2.1,0.4,4,1.6,5.4,3.3
	c1.5,1.9,2.5,4.2,2.9,6.7c0.5,2.9,0.4,5.9-0.2,8.8c-0.5,2.9-1.5,5.7-3,8.2c-1.2,2.1-2.9,3.9-5,5.2c-1.8,1.1-3.9,1.5-5.9,1.1
	c-2.6-0.4-4.9-1.8-6.3-4c-1.5-2.7-2.2-5.7-2.2-8.7c0-0.2,0-0.3-0.1-0.4c-0.1-0.1-0.2-0.2-0.3-0.2c-0.1,0-0.3,0-0.4,0.1
	c-0.1,0.1-0.2,0.3-0.2,0.4l-1.5,10.7c0,0.1,0,0.2,0,0.3c0,0.1,0.1,0.1,0.2,0.1c0.1,0,0.3,0,0.4-0.2l1.2-2.3c1.2,1.3,2.6,2.5,4.1,3.4
	c1.7,0.9,3.5,1.6,5.4,1.9c2.6,0.5,5.4,0.2,7.8-0.8c2.5-1.1,4.7-2.9,6.3-5.2c1.8-2.6,3-5.5,3.6-8.7c0.7-3.1,0.6-6.3-0.1-9.4
	C131.1,233,129.7,230.5,127.7,228.5z"/>
<path class="st0" d="M97.4,216.9l-9.3-5.9c-0.1-0.1-0.2-0.1-0.2-0.1h-0.1c-0.1,0-0.2,0.1-0.3,0.2c-0.1,0.1-0.1,0.2-0.1,0.4
	c0,0.1,0.1,0.2,0.2,0.3l2.5,1.6c0.3,0.1,0.5,0.5,0.3,0.8c0,0.1-0.1,0.1-0.1,0.2l-17,26.6l-4.9-3.1c-0.9-0.5-1.7-1.2-2.3-2.1
	c-0.4-0.7-0.5-1.4-0.5-2.2c0.2-1.4,0.4-2.7,0.8-4c0.1-0.3-0.1-0.6-0.3-0.8c-0.1,0-0.2-0.1-0.2-0.1c-0.2,0.1-0.3,0.2-0.3,0.3
	c-0.1,0.1-0.1,0.2-0.2,0.4l-2.5,6l0,0L85.7,250l4.4-4.8c0.1-0.1,0.2-0.2,0.3-0.3c0.1-0.1,0.2-0.3,0.1-0.4c0-0.1-0.1-0.2-0.1-0.2
	c-0.2-0.2-0.6-0.2-0.8,0c-1,0.9-2.1,1.7-3.3,2.4c-0.7,0.4-1.4,0.6-2.2,0.5c-1-0.2-2-0.6-2.8-1.1l-4.9-3.1l17-26.6
	c0.1-0.3,0.5-0.5,0.8-0.3c0.1,0,0.1,0.1,0.2,0.1l2.5,1.6c0.1,0.1,0.2,0.1,0.4,0.1c0.1,0,0.2-0.1,0.3-0.2c0.1-0.1,0.1-0.2,0.1-0.4
	C97.6,217.1,97.5,217,97.4,216.9z"/>
<path class="st0" d="M50.8,221.8c-0.1-0.1-0.2-0.3-0.2-0.5c0-0.2,0.1-0.4,0.3-0.5L74,200.4c0.2-0.3,0.6-0.3,0.9,0
	c0,0,0.1,0.1,0.1,0.1l1.7,1.9c0.1,0.1,0.2,0.2,0.3,0.2l0,0c0.1,0,0.2-0.1,0.3-0.1c0.1-0.1,0.2-0.2,0.2-0.3c0-0.1,0-0.3-0.1-0.4
	l-6.7-7.6c-0.1-0.1-0.2-0.2-0.3-0.2l0,0c-0.3,0-0.5,0.2-0.5,0.4c0,0.1,0,0.3,0.1,0.4l1.7,1.9c0.1,0.1,0.2,0.3,0.2,0.5
	c0,0.2-0.1,0.4-0.3,0.5L48.5,218c-0.2,0.3-0.6,0.3-0.9,0c0,0-0.1-0.1-0.1-0.1l-1.7-1.9c-0.1-0.1-0.2-0.2-0.3-0.2
	c-0.1,0-0.3,0-0.4,0.1c-0.1,0.1-0.2,0.2-0.2,0.3c0,0.1,0,0.3,0.1,0.4l6.7,7.6c0.1,0.1,0.2,0.2,0.3,0.2c0.1,0,0.3,0,0.4-0.1
	c0.1-0.1,0.2-0.2,0.2-0.3c0-0.1-0.1-0.3-0.2-0.4L50.8,221.8z"/>
<path class="st0" d="M57.4,189.8c1.9-2.1,3.2-4.6,3.7-7.4c1-5.5-1.4-11.1-6-14.3c-2.4-1.5-5.1-2.4-7.9-2.4c-0.2,0-0.5,0-0.8,0
	c-2.9,0-5.8,0.7-8.5,1.8c-2.9,1.2-5.6,3-7.7,5.3c-1.9,2.1-3.2,4.6-3.8,7.4c-1,5.5,1.4,11.1,6.1,14.3c2.3,1.5,5.1,2.4,7.9,2.5
	c3.2,0.1,6.3-0.5,9.2-1.8C52.6,194,55.2,192.2,57.4,189.8z M39.5,193.6h-1c-2.1,0-4.1-0.4-6-1.2c-4-1.9-5.9-6.4-4.5-10.6
	c0.8-2.3,2.2-4.3,4-5.9c2.2-2,4.7-3.5,7.5-4.6c2.7-1.2,5.6-1.9,8.5-2.1c2.4-0.2,4.8,0.2,7,1.2c1.9,0.9,3.4,2.5,4.2,4.5
	c0.9,2,0.9,4.2,0.2,6.2c-0.8,2.3-2.2,4.3-4,5.9c-2.2,2-4.7,3.5-7.4,4.6C45.4,192.6,42.5,193.4,39.5,193.6z"/>
</svg>
