<?xml version="1.0" encoding="utf-8"?>
<!-- Generator: Adobe Illustrator 25.0.0, SVG Export Plug-In . SVG Version: 6.00 Build 0)  -->
<svg version="1.1" id="Layer_2" xmlns="http://www.w3.org/2000/svg" xmlns:xlink="http://www.w3.org/1999/xlink" x="0px" y="0px"
	 viewBox="0 0 25.2 20.5" style="enable-background:new 0 0 25.2 20.5;" xml:space="preserve">
<style type="text/css">
	.st0{fill:none;stroke:#333333;stroke-miterlimit:10;}
	.st1{fill:none;stroke:#333333;stroke-linecap:round;stroke-linejoin:round;stroke-miterlimit:10;}
	.st2{fill:none;stroke:#333333;stroke-linecap:round;stroke-miterlimit:10;}
	.st3{fill:none;stroke:#FFFFFF;stroke-width:2;stroke-linejoin:round;stroke-miterlimit:10;}
</style>
<path class="st0" d="M-344.9,740.9c0-3.8,0-7.7,0-9.9c0-4,2.9-9.4-3.4-9.4s-45.9,0-49.9,0s-8.2,0.2-6.5,7.7c0.6,2.9,0.8,12.8,0.7,16
	c-0.1,3.2-0.7,9.1,0.7,10.6c1.4,1.4,3,1,12.1,1c6.5,0,23.3,0,33.6,0"/>
<path class="st0" d="M-344.9,750.8c0-0.6,0-0.8,0-1.5c0-1.8,0-3.9,0-6.2"/>
<path class="st0" d="M-401.5,757c0,0-0.5,9.1-1.4,11.9c-1,2.9-1.7,6.5,5.1,6.5c5.9,0,29.1,0,40.1,0"/>
<line class="st0" x1="-377.7" y1="721.7" x2="-377.7" y2="740.7"/>
<line class="st0" x1="-372" y1="721.7" x2="-372" y2="742.7"/>
<line class="st0" x1="-377.7" y1="765.3" x2="-377.7" y2="775.5"/>
<line class="st0" x1="-372" y1="765.3" x2="-372" y2="775.5"/>
<path class="st0" d="M-373.9,756.9h-1.7c-1,0-1.9-0.9-1.9-1.9v-1.7c0-1,0.9-1.9,1.9-1.9h1.7c1,0,1.9,0.9,1.9,1.9v1.7
	C-372,756.1-372.8,756.9-373.9,756.9z"/>
<path class="st0" d="M-377.1,752.1l-0.9-8.2c-0.1-0.6,0.4-1.2,1-1.2h4.3c0.6,0,1.1,0.5,1,1.1l-0.7,8.2"/>
<path class="st0" d="M-377.1,756.2l-0.9,8.2c-0.1,0.6,0.4,1.2,1,1.2h4.3c0.6,0,1.1-0.5,1-1.1l-0.7-8.2"/>
<polyline class="st0" points="-376.6,742.7 -378.9,739 -383.8,742.4 -377.1,751.7 "/>
<polyline class="st0" points="-378,765.3 -379.5,766.7 -383.8,761.7 -377.2,755.9 "/>
<circle class="st0" cx="-399.5" cy="749.8" r="2.7"/>
<polyline class="st0" points="-369.1,757 -369.1,747.9 -361.2,747.9 -361.2,756.9 "/>
<line class="st0" x1="-394.9" y1="752.1" x2="-377.1" y2="752.1"/>
<line class="st0" x1="-372" y1="752.1" x2="-369.1" y2="752.1"/>
<path class="st0" d="M-402.8,637.3c0.6,2.9,0.8,12.8,0.7,16c-0.1,3.2-0.7,9.1,0.7,10.6s3,1,12.1,1c9.1,0,37.3,0,41.6,0
	s4.8-2.4,4.8-7.6s0-14.3,0-18.3s2.9-9.4-3.4-9.4s-45.9,0-49.9,0C-400.3,629.6-404.5,629.8-402.8,637.3z"/>
<path class="st0" d="M-399.5,664.9c0,0-0.5,9.1-1.4,11.9s-1.7,6.5,5.1,6.5c7,0,38.3,0,44.6,0s9.6-0.7,7.8-5.8
	c-1.7-5.1-2-13.1-2-13.1"/>
<line class="st0" x1="-375.7" y1="629.6" x2="-375.7" y2="648.6"/>
<line class="st0" x1="-370" y1="629.6" x2="-370" y2="650.6"/>
<line class="st0" x1="-375.7" y1="673.2" x2="-375.7" y2="683.4"/>
<line class="st0" x1="-370" y1="673.2" x2="-370" y2="683.4"/>
<path class="st0" d="M-371.9,664.8h-1.7c-1,0-1.9-0.9-1.9-1.9v-1.7c0-1,0.9-1.9,1.9-1.9h1.7c1,0,1.9,0.9,1.9,1.9v1.7
	C-370,664-370.8,664.8-371.9,664.8z"/>
<path class="st0" d="M-375.1,660l-0.9-8.2c-0.1-0.6,0.4-1.2,1-1.2h4.3c0.6,0,1.1,0.5,1,1.1l-0.7,8.2"/>
<path class="st0" d="M-375.1,664.1l-0.9,8.2c-0.1,0.6,0.4,1.2,1,1.2h4.3c0.6,0,1.1-0.5,1-1.1l-0.7-8.2"/>
<polyline class="st0" points="-374.6,650.6 -376.9,646.9 -381.8,650.3 -375.1,659.6 "/>
<polyline class="st0" points="-376,673.2 -377.5,674.6 -381.8,669.6 -375.2,663.8 "/>
<circle class="st0" cx="-397.6" cy="657.7" r="2.7"/>
<polyline class="st0" points="-367.1,664.9 -367.1,655.8 -359.2,655.8 -359.2,664.8 "/>
<line class="st0" x1="-392.9" y1="660" x2="-375.1" y2="660"/>
<line class="st0" x1="-370" y1="660" x2="-367.1" y2="660"/>
<path class="st0" d="M-286.2,619.9c3,0,14.7,0,16.9,0s2.4-1.9,1.9-3.1c-0.3-0.9-1.1-1.2-2.5-1.2c-1.4,0-13.2,1.2-15.1,1.4
	C-287.3,617.3-287.7,619.9-286.2,619.9z"/>
<polyline class="st0" points="-276.8,619.9 -276.8,626.5 -271.1,626.5 -271.1,619.9 "/>
<path class="st0" d="M-280,633.5v-5.4c0-0.9,0.7-1.6,1.6-1.6h8.8c0.9,0,1.6,0.7,1.6,1.6v5.4H-280z"/>
<path class="st0" d="M-280,633.5l-10.1,2.3c-0.2,0.1-0.2,0.4,0,0.4h32.2c0.2,0,0.2-0.3,0-0.3l-10.1-2.4"/>
<path class="st0" d="M-263,685.5h-21.8c-3,0-5.4-2.4-5.4-5.4v-44h32.5v44C-257.7,683.1-260.1,685.5-263,685.5z"/>
<path class="st0" d="M-177.8,630.9v-8.4c0-0.7,0.6-1.3,1.2-1.3h8.1c0.7,0,1.2,0.6,1.2,1.3v8.4H-177.8z"/>
<path class="st0" d="M-177.8,630.9l-8.9,3.7c-0.2,0.1-0.2,0.4,0,0.4h28.3c0.2,0,0.2-0.3,0-0.3l-8.9-3.8"/>
<path class="st0" d="M-163,681.1h-19c-2.7,0-4.8-2.2-4.8-4.8v-41.4h28.6v41.4C-158.1,679-160.3,681.1-163,681.1z"/>
<path class="st1" d="M-263.6,644.8h-20.8V662h7.1c-4.1,1.4-7.1,5.3-7.1,9.9v3.2h20.8v-3.2c0-4.6-3-8.5-7.1-9.9h7.1V644.8z"/>
<line class="st1" x1="-278.5" y1="651.2" x2="-269.6" y2="651.2"/>
<line class="st1" x1="-280.3" y1="653.8" x2="-267.6" y2="653.8"/>
<line class="st1" x1="-279.4" y1="656.4" x2="-268.6" y2="656.4"/>
<path class="st2" d="M-266.5,672.5c0-4.6-3.4-8.3-7.5-8.3s-7.5,3.7-7.5,8.3"/>
<path class="st0" d="M-246.1,619.9c3,0,14.7,0,16.9,0c2.1,0,2.4-1.9,1.9-3.1c-0.3-0.9-1.1-1.2-2.5-1.2c-1.4,0-13.2,1.2-15.1,1.4
	C-247.1,617.3-247.5,619.9-246.1,619.9z"/>
<polyline class="st0" points="-236.7,619.9 -236.7,626.5 -231,626.5 -231,619.9 "/>
<path class="st0" d="M-239.8,633.5l-10.1,2.3c-0.2,0.1-0.2,0.4,0,0.4h32.2c0.2,0,0.2-0.3,0-0.3l-10.1-2.4"/>
<path class="st1" d="M-244.3,675h20.8v-17.2h-7.1c4.1-1.4,7.1-5.3,7.1-9.9v-3.2h-20.8v3.2c0,4.6,3,8.5,7.1,9.9h-7.1V675z"/>
<path class="st2" d="M-241.4,647.4c0,4.6,3.4,8.3,7.5,8.3s7.5-3.7,7.5-8.3"/>
<g>
	<path class="st0" d="M-355.4,743.1c1.7,0,8.4,0,9.6,0c1.2,0,1.3-1.1,1.1-1.8c-0.2-0.5-0.6-0.7-1.4-0.7c-0.8,0-7.6,0.7-8.6,0.8
		C-356,741.6-356.2,743.1-355.4,743.1z"/>
	<polyline class="st0" points="-350,743.1 -350,746.8 -346.7,746.8 -346.7,743.1 	"/>
	<rect x="-351.8" y="746.8" class="st0" width="6.9" height="4"/>
	<path class="st0" d="M-351.8,750.8l-5.8,1.3c-0.1,0-0.1,0.2,0,0.2h18.4c0.1,0,0.1-0.1,0-0.2l-5.8-1.4"/>
	<path class="st0" d="M-342.3,780.6h-12.1c-1.8,0-3.2-1.4-3.2-3.2v-25h18.6v25C-339,779.1-340.5,780.6-342.3,780.6z"/>
	<path class="st1" d="M-354.3,774.6h11.9v-9.8h-4.1c2.4-0.8,4.1-3,4.1-5.6v-1.8h-11.9v1.8c0,2.6,1.7,4.8,4.1,5.6h-4.1V774.6z"/>
	<line class="st1" x1="-345.8" y1="771.1" x2="-350.9" y2="771.1"/>
	<line class="st1" x1="-344.8" y1="769.5" x2="-352" y2="769.5"/>
	<line class="st1" x1="-345.3" y1="768" x2="-351.5" y2="768"/>
	<path class="st2" d="M-352.7,758.8c0,2.6,1.9,4.7,4.3,4.7c2.4,0,4.3-2.1,4.3-4.7"/>
</g>
<path class="st0" d="M-261.8,725.3h-9.4l0.9-9.5c0-0.4,0.3-0.6,0.7-0.6h6.1c0.4,0,0.7,0.3,0.7,0.6L-261.8,725.3z"/>
<path class="st2" d="M-255.4,730.5C-255.4,730.5-255.4,730.5-255.4,730.5c-0.5,0.2-5,1.1-11.1,1.1c-6.8,0-10.6-1-11.1-1.1
	c0,0,0,0,0,0l6.4-5.1c0,0,0,0,0,0h9.4c0,0,0,0,0,0L-255.4,730.5z"/>
<path class="st2" d="M-255.3,730.5l4.9,52.1c0.1,0.5-0.4,1-0.9,1h-30.3c-0.5,0-1-0.5-0.9-1l4.9-52.1"/>
<path class="st0" d="M-239.8,633.5v-5.4c0-0.9,0.7-1.6,1.6-1.6h8.8c0.9,0,1.6,0.7,1.6,1.6v5.4H-239.8z"/>
<path class="st1" d="M-266.5,737.5c-4.7,0-8.5,3.8-8.5,8.5v17h17v-17C-258,741.3-261.8,737.5-266.5,737.5z"/>
<line class="st2" x1="-279.8" y1="779.9" x2="-252.9" y2="779.9"/>
<path class="st2" d="M-272.1,747.6v-1.2c0-3.4,2.5-6.1,5.7-6.1c3.1,0,5.7,2.7,5.7,6.1v1.2"/>
<path class="st1" d="M-270.2,759.1"/>
<path class="st1" d="M-262.6,759.1"/>
<path class="st1" d="M-271.9,756.3"/>
<path class="st1" d="M-261.1,756.3"/>
<path class="st1" d="M-271,753.7"/>
<path class="st1" d="M-261.8,753.7"/>
<g>
	<path class="st0" d="M-331.4,775.6h4.6l-0.5,4.6c0,0.2-0.2,0.3-0.3,0.3h-3c-0.2,0-0.3-0.1-0.3-0.3L-331.4,775.6z"/>
	<path class="st2" d="M-334.5,773.1C-334.5,773.1-334.5,773.1-334.5,773.1c0.3-0.1,2.4-0.6,5.4-0.6c3.3,0,5.2,0.5,5.4,0.5
		c0,0,0,0,0,0l-3.1,2.5c0,0,0,0,0,0h-4.6c0,0,0,0,0,0L-334.5,773.1z"/>
	<path class="st2" d="M-334.5,773.1l-2.4-25.5c0-0.3,0.2-0.5,0.4-0.5h14.8c0.3,0,0.5,0.2,0.4,0.5l-2.4,25.5"/>
	<path class="st1" d="M-329.1,769.7c2.3,0,4.2-1.9,4.2-4.2v-8.3h-8.3v8.3C-333.2,767.9-331.4,769.7-329.1,769.7z"/>
	<line class="st2" x1="-322.6" y1="749" x2="-335.7" y2="749"/>
	<path class="st2" d="M-326.3,764.8v0.6c0,1.7-1.2,3-2.8,3c-1.5,0-2.8-1.3-2.8-3v-0.6"/>
	<line class="st1" x1="-331" y1="759.1" x2="-327.2" y2="759.1"/>
	<line class="st1" x1="-331.7" y1="760.4" x2="-326.4" y2="760.4"/>
	<line class="st1" x1="-331.4" y1="761.8" x2="-326.9" y2="761.8"/>
</g>
<path class="st1" d="M-172.5,644.5c-5,0-9.1,4.1-9.1,9.1v15.8h18.2v-15.8C-163.4,648.6-167.4,644.5-172.5,644.5z"/>
<path class="st1" d="M-178.5,655.3v-1.2c0-3.6,2.7-6.5,6-6.5c3.3,0,6,2.9,6,6.5v1.2"/>
<line class="st1" x1="-168.3" y1="665.6" x2="-176.4" y2="665.6"/>
<line class="st1" x1="-166.7" y1="662.9" x2="-178.2" y2="662.9"/>
<line class="st1" x1="-167.5" y1="660.1" x2="-177.3" y2="660.1"/>
<path class="st0" d="M-141.3,630.9v-8.4c0-0.7,0.6-1.3,1.2-1.3h8.1c0.7,0,1.2,0.6,1.2,1.3v8.4H-141.3z"/>
<path class="st0" d="M-141.3,630.9l-8.9,3.7c-0.2,0.1-0.2,0.4,0,0.4h28.3c0.2,0,0.2-0.3,0-0.3l-8.9-3.8"/>
<path class="st0" d="M-126.5,681.1h-19c-2.7,0-4.8-2.2-4.8-4.8v-41.4h28.6v41.4C-121.6,679-123.8,681.1-126.5,681.1z"/>
<path class="st1" d="M-135.9,669.4c5,0,9.1-4.1,9.1-9.1v-15.8H-145v15.8C-145,665.4-141,669.4-135.9,669.4z"/>
<path class="st1" d="M-129.9,658.6v1.2c0,3.6-2.7,6.5-6,6.5c-3.3,0-6-2.9-6-6.5v-1.2"/>
<line class="st1" x1="-140.1" y1="648.3" x2="-131.9" y2="648.3"/>
<line class="st1" x1="-141.7" y1="651" x2="-130.2" y2="651"/>
<line class="st1" x1="-140.9" y1="653.8" x2="-131.1" y2="653.8"/>
<line class="st1" x1="-262.8" y1="758.9" x2="-270.4" y2="758.9"/>
<line class="st1" x1="-261.3" y1="756.4" x2="-272.1" y2="756.4"/>
<line class="st1" x1="-262" y1="753.8" x2="-271.2" y2="753.8"/>
<line class="st1" x1="-238.5" y1="663.5" x2="-229.5" y2="663.5"/>
<line class="st1" x1="-240.3" y1="666.1" x2="-227.6" y2="666.1"/>
<line class="st1" x1="-239.4" y1="668.7" x2="-228.6" y2="668.7"/>
<path class="st0" d="M-222.9,685.5h-21.8c-3,0-5.4-2.4-5.4-5.4v-44h32.5v44C-217.5,683.1-219.9,685.5-222.9,685.5z"/>
<path class="st0" d="M-201.4,733.4l-10.2,2.9c-0.3,0-0.2,0.4,0.1,0.4h38.3c0.2,0,0.3-0.2,0-0.3l-10.2-3"/>
<path class="st1" d="M-203.7,770.6h22.7v-16h-7.7c4.5-1.5,7.7-5.7,7.7-10.8v-3.5h-22.7v3.5c0,5,3.2,9.2,7.7,10.8h-7.7V770.6z"/>
<path class="st2" d="M-200.7,743.2c0,5,3.7,9.1,8.2,9.1c4.5,0,8.2-4.1,8.2-9.1"/>
<path class="st0" d="M-201.4,733.4v-15.5c0-1.2,1-2.2,2.2-2.2h13.7c1.2,0,2.2,1,2.2,2.2v15.5H-201.4z"/>
<line class="st1" x1="-197.4" y1="759.4" x2="-187.7" y2="759.4"/>
<line class="st1" x1="-199.4" y1="762.2" x2="-185.6" y2="762.2"/>
<line class="st1" x1="-198.4" y1="765.1" x2="-186.6" y2="765.1"/>
<line class="st1" x1="-275.2" y1="544.1" x2="-258.7" y2="544.1"/>
<line class="st1" x1="-278.5" y1="548.1" x2="-255.1" y2="548.1"/>
<line class="st1" x1="-276.9" y1="552.2" x2="-256.9" y2="552.2"/>
<path class="st0" d="M-187.1,782.2h-10.5c-7.8,0-14.1-6.3-14.1-14.1v-31.5h38.7v31.5C-173,775.9-179.3,782.2-187.1,782.2z"/>
<rect x="-134.3" y="722.4" class="st1" width="18" height="45.1"/>
<rect x="-108.1" y="749.5" class="st1" width="18" height="18"/>
<rect x="-105.2" y="732.8" class="st1" width="12.3" height="16.8"/>
<path class="st1" d="M-94.3,732.8h-9.4v-5.7c0-1.2,1-2.1,2.1-2.1h5.2c1.2,0,2.1,1,2.1,2.1V732.8z"/>
<line class="st1" x1="-128.9" y1="729.8" x2="-121.7" y2="729.8"/>
<line class="st1" x1="-130.3" y1="732.8" x2="-120.2" y2="732.8"/>
<line class="st1" x1="-129.6" y1="735.8" x2="-121" y2="735.8"/>
<line class="st1" x1="-130.3" y1="743.5" x2="-120.2" y2="743.5"/>
<line class="st1" x1="-129.6" y1="746.5" x2="-121" y2="746.5"/>
<circle class="st1" cx="-125.3" cy="757.5" r="5.1"/>
<polyline class="st1" points="-336.7,566.9 -356.3,566.9 -356.3,536.9 -327.8,536.9 -327.8,548.3 "/>
<line class="st1" x1="-334.8" y1="536.9" x2="-334.8" y2="548.3"/>
<line class="st1" x1="-331.4" y1="536.9" x2="-331.4" y2="548.3"/>
<path class="st1" d="M-338.3,536.9v-3.5c0-3.3-2.7-6-6-6l0,0c-3.3,0-6,2.7-6,6v3.5v8.9"/>
<path class="st1" d="M-344.3,536.9v-3.5c0-3.3,2.7-6,6-6h0c3.3,0,6,2.7,6,6v3.5"/>
<path class="st1" d="M-323.4,551.4v2.4c0,2.3-1.9,4.2-4.2,4.2l0,0c-2.3,0-4.2-1.9-4.2-4.2v-2.4"/>
<polygon class="st1" points="-349.1,547 -350.3,545.9 -351.4,547 -352.5,548.2 -352.5,553.8 -348,553.8 -348,548.2 "/>
<rect x="-336.7" y="548.3" class="st1" width="24" height="18.6"/>
<line class="st1" x1="-318.5" y1="548.3" x2="-318.5" y2="566.9"/>
<polyline class="st1" points="-318.5,566.9 -315.5,561.5 -315.5,548.3 "/>
<line class="st1" x1="-312.8" y1="566.9" x2="-315.5" y2="561.5"/>
<path class="st1" d="M-266.8,533.3c-10.6,0-19.2,6.6-19.2,14.7c0,5.2,3.5,9.7,8.7,12.3c0.3,0.1,0.4,0.4,0.3,0.7l-1.4,4.7
	c-0.1,0.5,0.4,0.9,0.8,0.7l7.9-3.8c0.1,0,0.2-0.1,0.3-0.1c0.8,0.1,1.7,0.1,2.6,0.1c10.6,0,19.2-6.6,19.2-14.7
	C-247.6,539.8-256.2,533.3-266.8,533.3z"/>
<circle class="st1" cx="-204.8" cy="548.1" r="13.3"/>
<line class="st1" x1="-210.5" y1="548.1" x2="-199.4" y2="548.1"/>
<line class="st1" x1="-205" y1="542.5" x2="-205" y2="553.7"/>
<line class="st3" x1="0" y1="1" x2="25.2" y2="1"/>
<line class="st3" x1="0" y1="10.3" x2="25.2" y2="10.3"/>
<line class="st3" x1="0" y1="19.5" x2="25.2" y2="19.5"/>
<line class="st1" x1="-307.2" y1="333" x2="-283.7" y2="333"/>
<polyline class="st1" points="-296.8,343.3 -307.2,333 -296.8,322.6 "/>
<line class="st1" x1="-230.1" y1="333" x2="-253.6" y2="333"/>
<polyline class="st1" points="-240.4,322.6 -230.1,333 -240.4,343.3 "/>
</svg>
